<svg xmlns="http://www.w3.org/2000/svg" viewBox="0 0 96 96" width="96" height="96">
  <g fill="none" stroke="#D3B961" stroke-width="0.8" stroke-linecap="round" stroke-linejoin="round">
    <path d="M48 24L72 48L48 72L24 48Z"/>
    <path d="M48 36C54 36 60 42 60 48C60 54 54 60 48 60C42 60 36 54 36 48C36 42 42 36 48 36Z"/>
    <path d="M36 24C36 18 30 12 24 12C18 12 14 16 14 22C14 28 18 32 24 32C28 32 32 28 32 24"/>
    <path d="M60 24C60 18 66 12 72 12C78 12 82 16 82 22C82 28 78 32 72 32C68 32 64 28 64 24"/>
    <path d="M36 72C36 78 30 84 24 84C18 84 14 80 14 74C14 68 18 64 24 64C28 64 32 68 32 72"/>
    <path d="M60 72C60 78 66 84 72 84C78 84 82 80 82 74C82 68 78 64 72 64C68 64 64 68 64 72"/>
    <path d="M24 36C18 36 12 30 12 24C12 18 16 14 22 14C28 14 32 18 32 24C32 28 28 32 24 32"/>
    <path d="M24 60C18 60 12 66 12 72C12 78 16 82 22 82C28 82 32 78 32 72C32 68 28 64 24 64"/>
    <path d="M72 36C78 36 84 30 84 24C84 18 80 14 74 14C68 14 64 18 64 24C64 28 68 32 72 32"/>
    <path d="M72 60C78 60 84 66 84 72C84 78 80 82 74 82C68 82 64 78 64 72C64 68 68 64 72 64"/>
    <path d="M40 40L44 44"/>
    <path d="M56 40L52 44"/>
    <path d="M40 56L44 52"/>
    <path d="M56 56L52 52"/>
  </g>
</svg>
