<svg width="245" height="80" viewBox="0 0 245 80" fill="none" xmlns="http://www.w3.org/2000/svg">
<path fill-rule="evenodd" clip-rule="evenodd" d="M62.0024 30.287V56.492H62.2924L73.2788 50.9522C75.9257 49.6036 77.6299 46.9066 77.6299 43.918V32.8018H92.4959V22.3052H77.6299V12.9749H80.6393H94.2363C95.2878 12.9385 96.3031 12.6469 97.1733 12.1367C97.6084 11.8815 98.0072 11.59 98.3698 11.262C98.95 10.7517 99.4213 10.0957 99.7839 9.36674L104.461 0H98.3698H73.7139H62.0024V2.76993V30.287Z" fill="#11406E"/>
<path d="M108.776 54.451C105.223 52.6287 102.467 50.0775 100.473 46.8337C98.4786 43.59 97.4634 39.9089 97.4634 35.7904C97.4634 31.7449 98.4424 28.0638 100.473 24.82C102.467 21.5763 105.223 19.0615 108.74 17.2392C112.257 15.4533 116.245 14.5421 120.669 14.5421C125.129 14.5421 129.117 15.4533 132.634 17.2392C136.188 19.0251 138.907 21.5399 140.901 24.7836C142.859 27.9909 143.838 31.672 143.838 35.7904C143.838 39.9089 142.859 43.59 140.901 46.8337C138.943 50.0775 136.188 52.6287 132.634 54.451C129.081 56.2733 125.093 57.1845 120.669 57.1845C116.245 57.1845 112.293 56.2733 108.776 54.451ZM126.869 43.0797C128.501 41.3303 129.299 38.8884 129.299 35.7904C129.299 32.7289 128.501 30.3599 126.869 28.6469C125.238 26.9339 123.171 26.0592 120.669 26.0592C118.131 26.0592 116.064 26.9339 114.469 28.6469C112.837 30.3599 112.039 32.7654 112.039 35.7904C112.039 38.8884 112.837 41.2939 114.469 43.0797C116.1 44.8292 118.167 45.7039 120.669 45.7039C123.171 45.7039 125.238 44.8292 126.869 43.0797Z" fill="#11406E"/>
<path d="M159.212 54.451C155.659 52.6287 152.903 50.0775 150.909 46.8337C148.914 43.59 147.899 39.9089 147.899 35.7904C147.899 31.7449 148.914 28.0638 150.909 24.82C152.903 21.5763 155.659 19.0615 159.176 17.2392C162.693 15.4533 166.681 14.5421 171.105 14.5421C175.565 14.5421 179.553 15.4533 183.07 17.2392C186.587 19.0251 189.343 21.5399 191.337 24.7836C193.295 27.9909 194.31 31.672 194.31 35.7904C194.31 39.9089 193.331 43.59 191.337 46.8337C189.379 50.0775 186.624 52.6287 183.07 54.451C179.517 56.2733 175.528 57.1845 171.105 57.1845C166.717 57.1845 162.765 56.2733 159.212 54.451ZM177.341 43.0797C178.973 41.3303 179.771 38.8884 179.771 35.7904C179.771 32.7289 178.973 30.3599 177.341 28.6469C175.71 26.9339 173.643 26.0592 171.141 26.0592C168.603 26.0592 166.536 26.9339 164.941 28.6469C163.309 30.3599 162.511 32.7654 162.511 35.7904C162.511 38.8884 163.309 41.2939 164.941 43.0797C166.572 44.8292 168.639 45.7039 171.141 45.7039C173.643 45.7039 175.71 44.8292 177.341 43.0797Z" fill="#11406E"/>
<path d="M244.601 0V56.492H230.895V52.3736C228.212 55.5809 224.188 57.1845 218.857 57.1845C215.123 57.1845 211.715 56.3098 208.633 54.5604C205.551 52.8109 203.121 50.2961 201.308 47.0524C199.532 43.8087 198.625 40.0547 198.625 35.7904C198.625 31.5262 199.532 27.7722 201.308 24.5649C203.085 21.3576 205.551 18.8793 208.633 17.1298C211.715 15.4169 215.123 14.5421 218.857 14.5421C223.752 14.5421 227.56 15.9636 230.206 18.8064V0H244.601ZM228.031 43.0797C229.663 41.3303 230.46 38.8884 230.46 35.7904C230.46 32.7289 229.663 30.3599 228.067 28.6469C226.472 26.9339 224.405 26.0592 221.903 26.0592C219.365 26.0592 217.298 26.9339 215.703 28.6469C214.071 30.3599 213.274 32.7654 213.274 35.7904C213.274 38.8884 214.071 41.2938 215.703 43.0797C217.335 44.8292 219.401 45.7039 221.903 45.7039C224.333 45.7039 226.399 44.8292 228.031 43.0797Z" fill="#11406E"/>
<path d="M11.494 77.0114C6.81663 75.0433 2.97321 72.2005 0 68.4465L12.0379 54.123C16.2076 59.59 20.7037 62.287 25.5261 62.287C28.7169 62.287 31.1462 61.303 32.8141 59.3713C34.482 57.4396 35.316 54.5968 35.316 50.8428V21.9772C35.316 9.84055 45.1058 0 57.18 0V49.5308C57.18 59.6993 54.6418 67.3166 49.5294 72.3827C44.4532 77.4488 36.9476 80 27.0852 80C21.3564 80 16.1714 79.0159 11.494 77.0114Z" fill="#E9521D"/>
<path d="M108.631 71.0342H111.894L110.263 67.2073L108.631 71.0342Z" fill="#E9521D"/>
<path d="M194.999 71.0342H198.263L196.631 67.2073L194.999 71.0342Z" fill="#E9521D"/>
<path d="M133.505 71.0342H136.768L135.136 67.2073L133.505 71.0342Z" fill="#E9521D"/>
<path d="M230.424 62.9066H60.9871C59.4643 68.3007 56.9624 72.7836 53.4091 76.3189C53.2278 76.5011 53.0465 76.6469 52.8652 76.8292H239.815C242.643 76.8292 244.964 74.4966 244.964 71.6538V68.1185V62.9431H230.424V62.9066ZM100.509 74.3144L97.4634 70.6697L96.0855 72.0911V74.3144H94.4902V65.6037H96.0855V70.0501L100.364 65.6037H102.177L98.5511 69.5034L102.395 74.3144H100.509ZM113.308 74.3144L112.438 72.3098H108.123L107.253 74.3144H105.585L109.501 65.6037H111.097L115.013 74.3144H113.308ZM126.507 74.3144H119.11V73.221L124.186 66.9886H119.182V65.6037H126.325V66.697L121.249 72.9294H126.507V74.3144ZM138.146 74.3144L137.275 72.3098H132.961L132.09 74.3144H130.423L134.302 65.6037H135.898L139.814 74.3144H138.146ZM150.691 74.3144L147.645 70.6697L146.268 72.0911V74.3144H144.672V65.6037H146.268V70.0501L150.546 65.6037H152.359L148.733 69.5034L152.577 74.3144H150.691ZM165.05 74.3144H163.454V70.5968H158.994V74.3144H157.363V65.6037H158.958V69.2118H163.418V65.6037H165.013V74.3144H165.05ZM176.87 73.1481C176.616 73.549 176.217 73.8406 175.673 74.0957C175.129 74.3144 174.513 74.4601 173.752 74.4601C173.099 74.4601 172.446 74.3508 171.83 74.1686C171.214 73.9863 170.706 73.7312 170.343 73.4032L170.887 72.164C171.25 72.4556 171.685 72.6743 172.193 72.8565C172.7 73.0387 173.208 73.1116 173.752 73.1116C174.404 73.1116 174.876 73.0023 175.202 72.7836C175.528 72.5649 175.673 72.3098 175.673 71.9453C175.673 71.6902 175.601 71.508 175.42 71.3257C175.238 71.18 175.021 71.0342 174.731 70.9613C174.441 70.8519 174.078 70.779 173.607 70.6333C172.954 70.4875 172.41 70.3052 172.011 70.1595C171.612 70.0137 171.25 69.7585 170.96 69.4305C170.67 69.1025 170.525 68.6287 170.525 68.082C170.525 67.6082 170.67 67.1708 170.923 66.7699C171.177 66.369 171.576 66.0775 172.084 65.8223C172.591 65.6037 173.244 65.4579 174.005 65.4579C174.549 65.4579 175.057 65.5308 175.565 65.6401C176.072 65.7859 176.507 65.9681 176.87 66.2232L176.362 67.4624C176 67.2437 175.601 67.0615 175.166 66.9522C174.767 66.8428 174.368 66.7699 173.969 66.7699C173.317 66.7699 172.845 66.8793 172.555 67.098C172.229 67.3166 172.084 67.6082 172.084 67.9727C172.084 68.2278 172.156 68.41 172.338 68.5923C172.519 68.738 172.736 68.8838 173.026 68.9567C173.28 69.0661 173.679 69.139 174.151 69.2847C174.803 69.4305 175.311 69.5763 175.746 69.7585C176.145 69.9043 176.507 70.1595 176.797 70.4875C177.087 70.8155 177.232 71.2529 177.232 71.836C177.269 72.3098 177.16 72.7472 176.87 73.1481ZM188.69 66.9886H185.826V74.3144H184.194V66.9886H181.33V65.6037H188.69V66.9886ZM199.64 74.3144L198.77 72.3098H194.455L193.585 74.3144H191.917L195.797 65.6037H197.392L201.308 74.3144H199.64ZM213.818 74.3144H212.512L207.726 68.41V74.3144H206.131V65.6037H207.436L212.222 71.508V65.6037H213.818V74.3144Z" fill="#E9521D"/>
</svg>
