<svg width="99" height="67" viewBox="0 0 99 67" fill="none" xmlns="http://www.w3.org/2000/svg">
<path d="M90.1359 56.119H84.7816V53.6908C84.9106 53.6678 85.033 53.6168 85.1401 53.5413C85.2472 53.4658 85.3364 53.3677 85.4013 53.2539C85.5602 52.8117 85.6226 52.3405 85.5842 51.8722V44.4859C85.6212 44.0142 85.5589 43.54 85.4013 43.094C85.3342 42.9829 85.2442 42.8875 85.1374 42.8139C85.0305 42.7403 84.9092 42.6903 84.7816 42.6673V40.3508H95.5206V45.5425H92.239V44.9837C92.2919 44.4954 92.1495 44.0059 91.8427 43.6223C91.4436 43.315 90.9416 43.1731 90.4407 43.226H89.3332V46.6703H92.239V49.3322H89.3332V51.8722C89.2945 52.3672 89.3568 52.8649 89.5161 53.3352C89.5755 53.4507 89.6638 53.5488 89.7724 53.6201C89.8811 53.6913 90.0063 53.7332 90.1359 53.7416V56.119ZM82.7191 56.119H71.4416V53.6908C71.5706 53.6678 71.6929 53.6168 71.8 53.5413C71.9071 53.4658 71.9963 53.3677 72.0613 53.2539C72.2202 52.8117 72.2826 52.3405 72.2442 51.8722V44.4859C72.2812 44.0142 72.2189 43.54 72.0613 43.094C71.9942 42.9829 71.9042 42.8875 71.7974 42.8139C71.6905 42.7403 71.5692 42.6903 71.4416 42.6673V40.3508H82.7191V45.5425H79.2546V44.9634C79.2812 44.7091 79.2562 44.4521 79.1812 44.2077C79.1061 43.9632 78.9825 43.7365 78.8177 43.541C78.3791 43.2455 77.8497 43.1158 77.3242 43.1752H75.9932V46.6398H79.2546V49.3627H75.9932V53.3352H77.5985C77.8297 53.3554 78.0626 53.328 78.2828 53.2546C78.503 53.1812 78.7058 53.0634 78.8786 52.9085C79.1851 52.482 79.3226 51.9572 79.2647 51.4353V50.4193H82.7293L82.7191 56.119ZM69.1251 56.119H57.8374V53.6908C57.9664 53.6678 58.0888 53.6168 58.1959 53.5413C58.303 53.4658 58.3922 53.3677 58.4571 53.2539C58.616 52.8117 58.6784 52.3405 58.64 51.8722V44.4859C58.677 44.0142 58.6147 43.54 58.4571 43.094C58.39 42.9829 58.3 42.8875 58.1932 42.8139C58.0863 42.7403 57.965 42.6903 57.8374 42.6673V40.3508H69.1251V45.5425H65.6707V44.9634C65.6997 44.709 65.6759 44.4514 65.6008 44.2066C65.5256 43.9618 65.4007 43.7352 65.2338 43.541C64.7909 43.2381 64.2523 43.108 63.72 43.1752H62.3992V46.6398H65.6707V49.3627H62.4195V53.3352H64.0248C64.2522 53.357 64.4817 53.3331 64.6997 53.2651C64.9178 53.197 65.1201 53.0862 65.2948 52.939C65.6051 52.503 65.7393 51.966 65.6707 51.4353V50.4193H69.1251V56.119ZM41.5307 56.119H30.5782V53.1726L37.5378 43.1752H35.7801C35.2535 43.1293 34.7241 43.224 34.246 43.4496C33.9717 43.6426 33.8294 44.11 33.8294 44.8618V45.2072H30.7814V40.3508H41.5307V43.1752L34.6117 53.2031H36.8266C37.0434 53.2221 37.2617 53.1907 37.4644 53.1114C37.667 53.0321 37.8486 52.907 37.995 52.7459C38.261 52.378 38.3903 51.9289 38.3607 51.4759V51.0797H41.5307V56.119ZM21.7492 56.119H16.6083V53.6908C16.8355 53.6065 17.0284 53.4493 17.1569 53.2438C17.3519 52.9084 17.4828 52.5398 17.543 52.1566L19.2092 44.242C19.2701 43.978 19.2701 43.7035 19.2092 43.4394C19.1483 43.1854 19.0264 43.0533 18.8232 43.0533V40.3508H27.1442V43.0533C26.9511 43.0533 26.819 43.1854 26.7581 43.4394C26.6973 43.7035 26.6973 43.978 26.7581 44.242L28.4548 52.1566C28.5247 52.5345 28.6479 52.9005 28.8206 53.2438C28.9354 53.4569 29.1284 53.6171 29.359 53.6908V56.119H24.0149V53.6908C24.1242 53.7026 24.2345 53.6819 24.3321 53.6313C24.4297 53.5807 24.5102 53.5024 24.5635 53.4063C24.6458 53.2774 24.6979 53.1315 24.7159 52.9796C24.715 52.6077 24.6775 52.2368 24.6042 51.8722V51.6283H21.1803V51.8722C21.1069 52.2368 21.0695 52.6077 21.0685 52.9796C21.0865 53.1315 21.1386 53.2774 21.2209 53.4063C21.2776 53.5041 21.3617 53.5831 21.4628 53.6337C21.5639 53.6842 21.6776 53.7041 21.7899 53.6908L21.7492 56.119ZM22.7652 43.0533L21.6375 49.2712H24.1368L22.9989 43.0533H22.7652ZM50.0549 56.119H43.6744V53.6908C43.8034 53.6678 43.9258 53.6168 44.0329 53.5413C44.14 53.4658 44.2292 53.3677 44.2942 53.2539C44.453 52.8117 44.5154 52.3405 44.477 51.8722V44.4859C44.5271 44.0171 44.4787 43.543 44.3348 43.094C44.2677 42.9829 44.1777 42.8875 44.0709 42.8139C43.964 42.7403 43.8427 42.6903 43.715 42.6673V40.3508H49.8821C51.3111 40.2402 52.7373 40.5967 53.9461 41.3668C54.3931 41.7723 54.7395 42.2762 54.9582 42.8387C55.1768 43.4012 55.2617 44.0069 55.206 44.6078C55.2431 45.3074 55.107 46.0054 54.8097 46.6398C54.4396 47.2037 53.8929 47.6289 53.2552 47.8488C53.6849 48.0262 54.0803 48.2772 54.4236 48.5905C54.7025 48.8443 54.9272 49.1519 55.084 49.4947C55.2415 49.8462 55.3442 50.2197 55.3888 50.6022C55.4552 51.0295 55.496 51.4603 55.5107 51.8925C55.57 52.4916 55.4909 53.0963 55.2795 53.66C55.0681 54.2236 54.7301 54.7312 54.2916 55.1437C53.0353 55.926 51.5602 56.2823 50.0853 56.1597L50.0549 56.119ZM48.1854 49.2712V53.2336H49.8415C50.1123 53.2611 50.3858 53.2338 50.6458 53.1535C50.9059 53.0733 51.1472 52.9416 51.3553 52.7662C51.7099 52.3335 51.8813 51.7793 51.8328 51.2219C51.8602 50.9496 51.8291 50.6745 51.7415 50.4152C51.6539 50.1558 51.5118 49.9182 51.3248 49.7183C50.8698 49.3867 50.3114 49.2282 49.7501 49.2712H48.1854ZM48.1854 43.1752V46.6296H49.6383C50.164 46.6615 50.6856 46.5186 51.1217 46.2232C51.2864 46.0606 51.4122 45.8627 51.4896 45.6446C51.567 45.4264 51.5941 45.1935 51.5687 44.9634C51.5962 44.7099 51.5706 44.4534 51.4937 44.2103C51.4167 43.9672 51.29 43.7427 51.1217 43.5512C50.6924 43.2412 50.1656 43.0969 49.6383 43.1448L48.1854 43.1752ZM10.8984 40.3406H15.4094V42.6774C15.2329 42.6735 15.0606 42.7309 14.9217 42.84C14.7251 43.017 14.548 43.2145 14.3934 43.4292L11.6807 47.0056C12.5245 47.1065 13.318 47.4607 13.9565 48.0215C14.2373 48.3521 14.4493 48.7353 14.5801 49.1487C14.7109 49.5622 14.758 49.9976 14.7185 50.4295V51.9026C14.6793 52.3855 14.7309 52.8714 14.8709 53.3352C14.9063 53.4464 14.9749 53.5441 15.0676 53.6149C15.1603 53.6858 15.2725 53.7265 15.3891 53.7314V56.1597H11.3251C11.2273 55.9118 11.1624 55.6522 11.1321 55.3875C11.0723 54.9023 11.0485 54.4132 11.061 53.9245V51.8925C11.1071 51.2602 10.9581 50.629 10.6342 50.084C10.4469 49.8693 10.2106 49.7027 9.94537 49.5984C9.68014 49.4941 9.39372 49.455 9.11025 49.4846H8.01297V51.9331C7.97125 52.4066 8.04084 52.8833 8.21617 53.325C8.35565 53.5372 8.5695 53.6894 8.81561 53.7518V56.18H3.50195V53.6908C3.62962 53.6677 3.7509 53.6177 3.85776 53.5441C3.96461 53.4706 4.05459 53.3751 4.12171 53.2641C4.27879 52.8214 4.3411 52.3506 4.30459 51.8823V44.5062C4.34162 44.0345 4.27932 43.5604 4.12171 43.1143C4.05459 43.0033 3.96461 42.9078 3.85776 42.8342C3.7509 42.7607 3.62962 42.7107 3.50195 42.6876V40.3508H8.77497V42.6876C8.65774 42.6889 8.54283 42.7204 8.44137 42.7791C8.33991 42.8379 8.25534 42.9218 8.19585 43.0228C8.00563 43.4928 7.92905 44.0011 7.97233 44.5062V47.036L10.1872 44.242C10.6408 43.7111 10.8799 43.0299 10.8578 42.332L10.8984 40.3406Z" fill="#E7E7E7"/>
<path fill-rule="evenodd" clip-rule="evenodd" d="M36.2063 23.1702L41.5504 26.015C42.8916 26.6246 44.0803 26.6957 44.6899 28.3925C45.1572 29.7031 45.0353 28.7785 43.3488 30.3025C43.2528 30.3875 43.1509 30.4656 43.044 30.5362C42.3899 31.2085 41.8263 31.9634 41.3676 32.7816C41.1949 33.0762 41.0933 33.5029 40.4837 33.6655C40.9586 32.5555 41.6297 31.5402 42.4648 30.6683C42.668 30.4448 42.6782 30.5565 42.6985 30.1908C41.8857 30.4143 40.0976 32.812 40.0366 33.574C39.4372 33.574 39.6302 33.2896 39.7521 32.812C39.8436 32.4971 39.9452 32.0805 40.0366 31.7046C39.6607 31.7046 39.9045 31.5014 39.4677 32.3853C39.1415 33.1925 38.946 34.0465 38.8885 34.9151C38.8885 35.3825 38.98 35.2403 38.6955 35.4435C38.7833 34.0229 39.053 32.6196 39.4981 31.2677C39.1629 31.3592 39.2848 31.349 38.9698 31.9789L38.5736 32.9238C38.4313 33.1575 38.1265 33.3505 37.9335 33.6147C37.7188 33.8643 37.5564 34.1545 37.456 34.4681H37.2223C37.0191 33.5944 37.5982 33.188 37.6693 32.3345C37.3849 32.4056 37.2528 32.5784 37.0801 32.9848C36.9074 33.3912 36.948 33.7163 36.6026 33.8484C36.4344 33.1515 36.2032 32.4713 35.9117 31.8164C35.6272 31.2779 35.6882 31.3592 35.4443 31.2982C35.5154 32.0602 35.9625 32.6596 35.9828 33.4318C35.7186 33.2388 35.6475 32.8527 35.5053 32.4869C35.2106 31.7859 35.2106 31.7249 34.916 31.6538C34.9214 31.8112 34.9418 31.9677 34.977 32.1212C35.033 32.5665 35.1317 33.0054 35.2716 33.4318C35.4873 34.0885 35.607 34.7729 35.6272 35.4638L35.4443 35.1183C35.3935 34.9558 35.3935 34.8643 35.3427 34.6815C35.2701 34.4091 35.1819 34.1411 35.0786 33.8788C34.9874 33.6193 34.8823 33.3649 34.7636 33.1168C34.4893 32.5682 34.601 32.9136 34.6417 32.3548C34.1032 32.4666 34.3978 32.2634 33.5546 31.3388C33.2193 30.9528 33.3107 30.7394 33.3107 29.9774C33.4959 27.0079 34.6567 24.1828 36.6127 21.9409C36.7651 21.7986 36.8667 21.6767 37.0191 21.5446L37.5677 21.2094C37.3239 21.6666 36.7448 22.2254 36.2368 23.1702H36.2063ZM59.7266 27.1733C59.7266 29.7133 60.1432 29.4897 60.1736 30.4549C60.2041 31.4201 60.1736 32.2024 60.1736 33.0457H59.9908C59.9039 32.4068 59.6399 31.805 59.2288 31.3084C59.0662 31.156 59.2288 31.2068 59.1068 31.3084C58.9646 31.5928 59.6047 33.0457 59.6352 33.442H59.4624C59.3507 32.9441 59.0052 31.7148 58.4464 31.5725C58.4464 31.7351 58.5379 32.5072 58.5785 32.68C58.7004 33.1067 58.9646 33.2794 58.5785 33.5232C58.2839 33.3099 57.7556 32.0602 57.3593 31.6335L55.7337 30.1501C56.0497 30.7786 56.4609 31.3543 56.9529 31.857C57.4538 32.4175 57.8281 33.0794 58.0502 33.7976C58.0502 33.9601 57.8369 34.0211 57.6946 34.0617C56.9438 31.999 55.4761 30.2753 53.5595 29.2053C53.2649 29.063 53.5595 29.0935 53.0617 29.0833C53.1531 29.3983 54.3215 30.0993 55.0022 30.7902C55.6829 31.4811 56.5262 32.0704 56.5262 32.9543C55.9461 33.298 55.5041 33.8334 55.2765 34.4681C55.053 34.4072 54.9413 34.397 54.9413 34.1328C54.9413 33.5029 55.4391 33.0356 55.4594 32.3345C55.1953 32.4056 55.3273 32.3345 55.1445 32.558C54.8667 32.9449 54.6698 33.3837 54.5653 33.8484H54.3926C54.2614 33.0119 53.9791 32.2063 53.5595 31.4709C53.3868 31.2576 53.4579 31.3185 53.2344 31.2677C53.2577 31.62 53.3473 31.9647 53.4986 32.2837C53.6002 32.6088 53.6814 32.9136 53.7627 33.2997C53.4782 33.1981 53.4274 32.812 53.2649 32.4768C53.1023 32.1415 53.1226 32.1516 53.0414 31.9789V31.918C52.9499 31.7351 52.9499 31.6741 52.7264 31.6132C52.7306 31.774 52.7511 31.934 52.7874 32.0907C52.7874 32.5885 52.6146 32.2939 52.9499 33.1067C53.1125 33.5029 53.1125 33.4318 52.9499 33.635H52.8991C52.7467 33.5334 52.066 32.2024 51.6799 31.7452C51.2938 31.288 50.5826 30.3025 50.0543 30.2517C50.0543 30.5972 50.0543 30.526 50.288 30.7292C50.9463 31.3693 51.4985 32.1101 51.9238 32.9238C52.1418 33.2581 52.284 33.6361 52.3403 34.0312L51.9949 34.1328C51.8831 33.9093 51.9949 33.9296 51.8628 33.7163L50.989 32.1008C50.2534 31.0069 49.2899 30.085 48.1646 29.3983C47.9122 29.1887 47.5982 29.0674 47.2705 29.0529C47.6058 29.5507 48.1138 29.6523 48.4287 30.1196L46.8133 31.6132C46.6406 31.8468 46.5796 32.0907 46.2951 32.1618C46.0615 31.288 44.7102 30.5362 44.3343 30.0282L44.8524 29.6625C45.1572 29.4288 45.1064 29.3678 45.4925 29.317C46.5085 29.1748 46.3866 29.3881 46.3866 28.2502C47.0834 27.8233 47.8766 27.5787 48.6929 27.539C49.0304 27.5781 49.3714 27.5781 49.7089 27.539C49.8613 27.539 50.4099 27.346 50.603 27.2749C52.4176 26.5794 54.301 26.0788 56.2214 25.7813C58.4058 25.7813 58.0197 26.4011 59.686 26.4011L59.8688 26.0455C59.8688 26.5535 59.7774 26.6551 59.7774 27.2037L59.7266 27.1733ZM28.6778 28.8598C29.0022 29.2068 29.2176 29.6413 29.2975 30.1095H29.0334C29.4499 30.7292 29.7751 30.8207 29.836 31.5319L29.1248 30.7292C28.8755 30.4367 28.5719 30.1952 28.2308 30.018C28.2679 29.5976 28.4229 29.1962 28.6778 28.8598ZM22.9273 25.9033L23.1914 25.1108C22.7952 24.3894 23.1914 24.0948 23.5877 23.6376C23.4212 24.0407 23.2953 24.4593 23.2117 24.8873C23.2117 25.4359 23.4657 25.568 22.9781 26.0049C22.9781 26.523 22.9171 26.1471 22.8053 26.5738C22.9395 26.5298 23.063 26.4582 23.168 26.3637C23.2729 26.2693 23.357 26.154 23.4149 26.0252C23.8417 25.314 23.3235 25.0905 23.8721 24.1761C24.236 23.1505 24.3881 22.0617 24.3192 20.9757C24.3192 20.1731 24.4919 19.5228 24.4919 18.7507H24.756C24.8109 19.4167 24.965 20.0708 25.2132 20.6912C25.7416 22.2457 25.8127 23.2007 24.8373 24.4301C24.4379 24.8912 24.0967 25.3996 23.8213 25.9439C23.6321 26.9966 23.5403 28.0646 23.547 29.1341C23.293 30.8715 23.7197 31.3185 22.3888 30.0688C21.9232 29.6717 21.3897 29.3619 20.814 29.1545C21.2102 29.7539 23.2524 31.0848 23.1914 31.7046C23.1859 31.9903 23.0777 32.2644 22.8866 32.4768C22.5468 32.8766 22.3221 33.3612 22.2364 33.8788H22.0637C21.998 33.1689 21.7944 32.4787 21.4642 31.8468L21.322 31.542C21.2102 31.3693 21.1797 31.3388 21.0781 31.3388C21.1289 30.7496 21.6268 30.8816 21.7893 30.1806C21.1419 30.5491 20.5835 31.0556 20.1536 31.664C19.8793 32.0399 19.991 32.111 19.5643 32.1415C19.4936 31.9116 19.3681 31.7024 19.1986 31.5319C18.7857 30.9614 18.2422 30.498 17.6136 30.1806C17.705 30.5464 18.1216 30.8613 18.3248 31.1966C17.9032 32.0535 17.563 32.9481 17.3088 33.8687C16.9735 33.6147 16.9024 32.8527 16.5773 32.4564C15.7442 31.5014 16.6992 33.828 16.7398 34.0109C16.8008 34.3665 16.7398 34.3259 16.5163 34.4884C16.3842 34.0109 15.3581 33.0356 15.3581 32.7917C15.515 32.4206 15.7312 32.0775 15.9982 31.7757C16.4299 31.2324 16.9168 30.7353 17.451 30.2924C17.6542 30.1095 17.451 30.2416 17.6542 30.0485C17.7953 29.892 17.9598 29.7583 18.1419 29.6523C18.4162 29.4389 18.467 29.5304 18.5585 29.1748C18.0231 29.3682 17.5273 29.6574 17.0954 30.0282C15.9753 30.9235 15.0751 32.0635 14.464 33.3607C14.3116 33.6553 14.2507 33.9601 14.1084 34.2548C13.7833 34.1633 13.9255 34.1532 13.6614 33.9804C14.1406 32.8061 14.8291 31.7286 15.6934 30.8004C15.8153 30.6683 15.9372 30.6784 16.0287 30.333C15.2057 30.5565 14.3726 31.857 13.9255 32.5987C13.7149 32.9107 13.5538 33.2534 13.448 33.6147H13.0924C13.1078 33.2685 13.1728 32.9263 13.2855 32.5987C13.3268 32.3023 13.3505 32.0038 13.3566 31.7046C13.0705 31.9504 12.871 32.2816 12.7876 32.6495C12.5525 33.4312 12.3959 34.2344 12.3203 35.0472C12.2491 35.4638 12.4523 36.2258 12.1272 36.4595C12.1505 35.2034 12.2625 33.9506 12.4625 32.7104C12.6188 32.3173 12.7147 31.9029 12.747 31.4811C11.6599 32.7308 11.6802 34.7729 11.6802 36.3782C10.3279 36.4765 8.97136 36.5037 7.61621 36.4595C6.28526 36.4595 4.78158 36.5204 3.43031 36.5509L0.646484 36.6931C4.71046 36.6931 8.77445 36.9573 12.8384 36.9573L15.8864 37.0792C16.9017 37.0245 17.9191 37.0245 18.9344 37.0792C19.8793 37.2215 41.3777 37.5059 43.43 37.5059H55.9877C62.165 37.5059 68.3524 37.2316 74.4992 37.2316C78.5632 37.13 82.6271 36.9675 86.6911 36.9675C88.8044 36.9675 90.6738 36.876 92.7871 36.876C94.9004 36.876 96.9425 36.7033 98.8831 36.7033V36.6119C96.5259 36.6119 94.118 36.429 91.7711 36.429L85.6751 36.3477C84.4153 36.3477 84.9842 36.1039 85.5126 35.3317C85.6815 35.0885 85.8794 34.8668 86.1018 34.6713C86.549 34.2905 86.9731 33.8834 87.3718 33.4521C86.2644 33.5436 85.096 35.1691 84.5169 36.0327C84.2019 35.7991 83.9784 35.2606 83.7244 34.9659C84.1448 34.3106 84.5281 33.6322 84.8725 32.934C84.2882 33.3972 83.8042 33.9745 83.4501 34.6307L83.1148 34.3462C83.1733 34.0468 83.2514 33.7515 83.3485 33.4623C83.4878 33.1377 83.5835 32.796 83.633 32.4463C83.2544 32.8571 83.0129 33.3755 82.9421 33.9296C82.556 33.828 82.5763 33.2388 82.3935 32.7003C82.2952 32.2645 82.0851 31.8618 81.7839 31.5319C81.8618 32.1699 82.0118 32.797 82.2309 33.4013C81.8651 33.4013 82.048 33.5131 81.8651 33.1372C81.7 32.629 81.464 32.1468 81.1641 31.7046C81.1641 33.1168 81.5705 33.0965 81.2555 33.574C80.9914 33.4013 80.1684 31.8672 79.7214 31.3693C79.3788 30.9374 78.9626 30.5694 78.492 30.2822C78.8344 30.8693 79.2435 31.4148 79.7112 31.9078C80.1642 32.4541 80.509 33.0816 80.7272 33.7569L80.3919 34.1328C80.0973 33.7061 79.8738 33.0559 79.5995 32.5682C79.0203 31.5522 77.0392 29.2256 75.8301 29.124C76.0953 29.4563 76.4147 29.7415 76.775 29.9673C77.537 30.5464 79.1219 31.8875 79.1219 32.9543C78.8375 33.0356 78.9086 33.0254 78.7054 33.2388C78.5022 33.4521 77.9332 34.4376 77.6183 34.5596C77.1712 33.889 77.8621 33.2692 77.8824 32.5276C77.5514 32.824 77.3177 33.2136 77.2119 33.6452C77.09 33.9398 77.2119 33.8585 76.8969 33.95C76.8053 33.4499 76.6762 32.9575 76.5108 32.4768L75.952 31.4608V31.41L75.8301 31.2677C75.8911 32.0094 76.3076 32.5682 76.3686 33.2997C75.9622 33.188 75.8403 32.4158 75.4542 31.8164L75.3018 31.6132V31.9789C75.3601 32.4163 75.4553 32.8479 75.5863 33.2692C75.6574 33.6655 75.3729 33.696 75.1494 33.3404C75.079 33.2252 75.0146 33.1065 74.9564 32.9848C74.8989 32.8411 74.831 32.7019 74.7532 32.5682C74.5906 32.2939 74.4992 32.2329 74.3163 31.9383C74.0521 31.4811 73.1174 30.3127 72.5993 30.272C73.0295 30.9274 73.5048 31.5521 74.0217 32.1415L74.6516 33.2083C74.8751 33.6553 75.1291 34.0312 74.4687 34.2243C74.4408 34.082 74.4 33.9426 74.3468 33.8077L74.1334 33.4013C73.7381 32.5622 73.2324 31.7797 72.6297 31.0747C71.9199 30.2385 71.0262 29.5778 70.0186 29.1443C70.1304 29.5609 70.6384 29.7133 70.9229 30.0282C71.7279 30.7064 72.4539 31.4732 73.0869 32.3142C73.4933 32.9035 73.3308 32.8832 72.9549 33.3302L72.0709 34.5799L71.7661 34.2243C71.9981 33.6374 72.1816 33.0326 72.3148 32.4158C71.908 32.8333 71.6294 33.3587 71.5121 33.9296C71.187 33.8484 71.2175 33.7976 71.1464 33.4115C71.1061 33.1443 71.038 32.8821 70.9432 32.6292C70.8619 32.4056 70.7908 32.2228 70.6892 31.9992C70.486 31.5725 70.5876 31.5522 70.2726 31.4404C70.2726 30.841 70.7501 30.8308 70.8924 30.2822C70.5145 30.4876 70.1715 30.7516 69.8764 31.0645C69.5582 31.3796 69.297 31.7474 69.1042 32.1516C68.6775 32.1516 68.962 32.2024 68.7791 32.0297C68.7791 32.0297 68.5759 31.7452 68.5556 31.7249C68.3067 31.3399 67.998 30.9969 67.6412 30.7089C67.3466 30.4854 67.3364 30.3432 66.9706 30.3127C67.0519 30.648 67.4685 30.9832 67.6818 31.3287C67.4059 31.6672 67.1863 32.048 67.0316 32.4564C66.8386 32.934 66.8182 33.4724 66.6151 33.9093C66.3306 33.7976 66.5236 33.9906 66.3509 33.635C66.1782 33.2794 66.0461 32.619 65.6295 32.4768C65.6295 33.2388 66.2594 33.9601 65.9851 34.5088C65.5381 34.5088 65.6905 34.2751 65.2536 33.7264L64.9691 33.2997C64.9691 33.2997 64.8269 33.2083 64.7659 33.1473C64.3697 32.8019 64.7659 32.3548 65.2028 31.7656L66.5033 30.394C67.0288 30.0396 67.5127 29.6272 67.946 29.1646C67.6097 29.2241 67.2927 29.3635 67.0214 29.571C66.867 29.6515 66.7206 29.7468 66.5846 29.8555L65.9953 30.333L65.5178 30.7496C65.2739 31.0239 65.1927 31.3287 64.7863 31.4404C64.8287 31.1834 64.9073 30.9337 65.0199 30.6988C65.2028 30.4041 65.2739 30.6175 65.2638 30.0688C65.2536 29.5202 65.6194 29.1951 65.6702 28.5957C66.1838 28.7649 66.7273 28.8237 67.2653 28.7684C67.9657 28.6852 68.6102 28.3449 69.0738 27.8133C69.3335 27.5548 69.5371 27.2453 69.6717 26.9044C69.8063 26.5635 69.8691 26.1985 69.8561 25.8321C70.1507 25.8321 70.2218 25.9845 70.4961 25.8321C71.4105 25.4156 71.9084 24.3996 72.5281 23.6274C74.1233 21.4939 73.788 21.2297 74.5601 18.8523C75.2307 16.6679 74.3061 18.1715 75.9114 16.0176C76.2162 15.6011 76.7039 14.8797 77.222 14.7476C77.5776 14.646 78.238 14.6562 78.7257 14.5546C79.6299 14.3819 80.5037 13.9856 81.4283 13.8942C82.3528 13.8028 82.0683 13.8942 82.6881 13.4573L83.7041 12.8173C83.8255 12.8675 83.9386 12.936 84.0394 13.0205C85.0554 13.7418 85.543 12.6953 86.1323 12.5633C86.4516 12.5284 86.7528 12.3973 86.9959 12.1873C86.9846 11.8915 86.9575 11.5964 86.9146 11.3034C87.1382 10.9681 87.2499 11.0291 87.4429 10.7649C87.2804 10.0436 86.2746 9.56607 85.9291 8.81423C84.7302 6.17265 84.273 7.15816 84.1511 5.33953C84.0365 4.73959 83.7747 4.17752 83.3891 3.70378C82.4951 2.81986 82.5255 3.19578 82.0175 2.13914C81.3775 2.13914 81.2454 2.13914 80.8796 1.84451C80.6453 1.6067 80.4248 1.35568 80.2192 1.09267C80.1136 0.930345 79.9756 0.791652 79.8137 0.68533C79.6519 0.579008 79.4698 0.507363 79.2789 0.474909C79.088 0.442456 78.8924 0.449898 78.7046 0.496767C78.5167 0.543636 78.3405 0.628915 78.1872 0.74723C78.0386 0.83471 77.899 0.936817 77.7707 1.05203C75.9825 2.57602 75.4237 2.54554 72.7923 2.15946H70.2117L68.8706 2.53538C67.1942 2.94178 66.2188 3.74442 64.5018 4.02889C63.5874 4.18129 62.927 4.17113 62.0228 4.40481C60.8635 4.746 59.6866 5.02412 58.4972 5.23793C58.0096 5.29889 57.6133 5.23793 57.0647 5.30905L55.7236 5.40049C53.3563 5.40049 50.7452 5.40049 48.51 5.22777C48.1048 5.18743 47.7037 5.11265 47.3111 5.00425C45.1579 4.55303 42.9676 4.30136 40.7681 4.25241C38.8377 4.25241 35.2818 3.61234 32.8942 3.50058C29.9478 3.0129 27.4383 3.50058 25.4469 5.73577C25.2171 6.01615 25.0162 6.31911 24.8475 6.64C24.2629 7.91495 23.9613 9.30139 23.9636 10.704C23.9636 11.0901 23.8823 11.0189 23.862 11.405L23.608 16.2208C23.608 16.6171 23.5267 16.5358 23.5165 16.9219C23.5601 17.9742 23.3599 19.0224 22.9316 19.9846C22.5034 20.9469 21.8586 21.7972 21.0477 22.4692C20.7835 22.6927 20.7937 22.5505 20.6311 22.8553C20.5148 23.1824 20.3193 23.4756 20.0622 23.7087C19.7472 24.0237 19.5237 24.105 19.5135 24.6638C19.9098 24.3996 20.1231 23.9932 20.6616 23.8713C20.5092 24.4504 19.6456 24.9686 19.1579 25.2937C19.4729 25.8931 19.4932 25.4969 19.9199 25.7712C20.1333 25.9134 20.1739 26.4417 20.306 26.7161C20.6209 26.4925 20.5701 26.2081 21.0273 26.0963C21.0273 26.5637 20.9257 26.5129 21.2001 26.7161C21.2813 26.3503 21.2813 26.3503 21.6471 26.269C21.5925 26.4436 21.5618 26.6247 21.5557 26.8075C22.3989 26.584 22.1246 24.7755 22.5005 24.1862C22.6529 23.9322 22.5615 24.0237 22.8053 23.9526C22.7342 24.2574 22.6225 24.2675 22.6225 24.5825C22.6274 24.8154 22.722 25.0374 22.8866 25.2022C22.8866 25.6391 22.7037 25.7306 22.6225 26.0963C22.7545 26.015 22.8155 26.0353 22.9273 25.9033ZM44.0701 33.8382H43.8872C43.7823 33.3786 43.5891 32.9439 43.3183 32.558C43.1252 32.2939 43.2573 32.3345 42.922 32.2431L43.5418 34.2039C43.5418 34.3665 43.3386 34.4275 43.1862 34.4681C43.044 33.9093 42.028 32.9441 42.028 32.8628C42.2153 32.302 42.528 31.7912 42.9424 31.3693C43.3214 30.9456 43.7324 30.5516 44.1717 30.1908C44.5176 30.4812 44.8158 30.8241 45.0556 31.2068C44.7234 31.7774 44.4575 32.3842 44.2632 33.0152C44.1656 33.2702 44.1007 33.5365 44.0701 33.8077V33.8382ZM47.809 31.2271C47.9941 30.8162 48.2642 30.4491 48.6015 30.1501C49.2609 30.6732 49.8336 31.2973 50.2982 31.9992C51.111 33.2184 50.7554 32.5784 49.8003 34.082C49.7601 34.1577 49.7124 34.2291 49.6581 34.2954C49.5463 34.4376 49.6073 34.4173 49.4041 34.4884C49.1196 33.8788 49.8511 32.7104 49.8511 32.4564C49.8511 32.2024 49.8511 32.2837 49.7597 32.2837C49.6465 32.3765 49.5412 32.4784 49.4447 32.5885C48.9875 33.3708 49.0587 33.6858 48.7843 33.889L47.9817 31.5725C47.9106 31.4303 47.809 31.3896 47.809 31.3084V31.2271ZM20.6616 31.7452L20.7937 31.603C20.9156 31.4811 20.7937 31.603 20.9359 31.4811C21.1861 32.0809 21.3635 32.7085 21.4642 33.3505H21.2915C21.1887 32.7793 20.9747 32.2339 20.6616 31.7452ZM47.2705 31.7452L47.3924 31.603C47.5245 31.4811 47.3924 31.603 47.5347 31.4811L48.0427 33.0356C48.1443 33.3505 48.2052 33.2794 47.9817 33.442C47.8499 32.8378 47.6089 32.2628 47.2705 31.7452ZM70.6384 33.0864L70.6993 33.3505C70.4758 33.2388 70.5774 33.3505 70.4758 33.0864L70.039 31.603C70.1609 31.4811 70.039 31.603 70.1812 31.4811C70.2625 31.664 70.3133 31.9992 70.3946 32.2532C70.4758 32.5072 70.547 32.7917 70.6384 33.0864ZM18.1318 33.1676L18.5686 31.4811C19.0868 31.8265 18.7718 31.8062 18.5077 32.4971C18.3146 32.9746 18.5077 33.066 18.1318 33.1778V33.1676ZM27.0624 31.7046C27.0624 31.4912 27.5805 30.902 27.6821 30.6886C27.7491 30.5733 27.8102 30.4546 27.865 30.333C28.1072 30.4214 28.3261 30.5639 28.5051 30.7496L29.5211 31.9688C29.6638 32.2154 29.7927 32.4698 29.9071 32.7308C29.6168 32.9721 29.3574 33.2486 29.135 33.5537C28.4949 34.2446 28.82 34.1633 28.3933 34.4275C28.1698 33.95 28.7489 32.9136 28.9318 32.111C28.18 32.172 28.312 33.4013 27.7736 33.8077C27.6212 33.4826 27.7736 33.5537 27.6618 33.1981C27.55 32.8425 27.0624 31.9383 27.0624 31.7046ZM44.6797 33.4013C44.6797 32.6393 45.1166 32.0602 45.1268 31.5319C45.6246 31.6436 45.3503 31.7656 44.9134 33.0152C44.7813 33.4115 44.9642 33.188 44.6797 33.4013ZM67.1942 33.3099L67.7022 31.4404C68.1695 31.7554 67.9663 31.5116 67.4583 32.9746C67.3262 33.3302 67.4075 33.2286 67.1739 33.3099H67.1942ZM45.584 32.0602C46.5187 32.3142 45.716 33.1778 45.4316 34.143C45.306 34.5784 45.2176 35.0236 45.1674 35.4739C45.0556 35.8702 45.2588 35.5857 44.954 35.7991C45.0252 35.3215 44.954 35.4841 45.1674 34.3259L45.584 32.0602ZM20.2654 32.3345C20.3466 32.2634 20.4178 32.2431 20.3974 32.3345C20.4882 32.7643 20.6244 33.1832 20.8038 33.5842C21.0172 34.2141 20.9969 34.7221 21.1086 34.9659C20.8241 34.8542 20.9257 34.8339 20.8038 34.3868C20.499 33.2184 19.8894 32.7917 20.2654 32.304V32.3345ZM26.7169 32.1212C27.0217 32.3447 26.8084 32.1212 26.9404 32.5276C27.0095 32.7105 27.0539 32.9018 27.0725 33.0965H26.8998C26.8823 32.9246 26.8378 32.7566 26.7677 32.5987C26.5442 32.0297 26.7677 32.5987 26.7169 32.1212ZM33.5647 32.1212C33.7465 32.2736 33.8922 32.4644 33.9914 32.68C34.0238 32.7285 34.0455 32.7832 34.0554 32.8407C34.0652 32.8982 34.0629 32.9571 34.0485 33.0135C34.0341 33.0701 34.0081 33.1229 33.972 33.1687C33.9359 33.2145 33.8906 33.2522 33.839 33.2794C33.6945 32.9079 33.6021 32.5181 33.5647 32.1212ZM18.5788 34.8237V34.9964V35.1996C18.4467 35.0777 18.5788 35.1996 18.4874 34.9964C18.4825 34.939 18.4825 34.8812 18.4874 34.8237C18.589 33.8077 19.1173 32.9543 19.1173 32.2431L19.4932 32.5784C19.4422 32.762 19.3634 32.9367 19.2595 33.0965L18.5788 34.8237ZM46.7422 32.6901C46.7422 32.4971 46.7422 32.5682 46.8235 32.3345H47.0063C47.2807 33.5232 47.809 34.082 47.809 35.7076C47.4737 35.4638 47.7175 35.7686 47.5753 35.0168C47.4801 34.4622 47.3127 33.9226 47.0775 33.4115C47.0775 33.3302 46.7422 32.6901 46.7422 32.6901ZM67.5599 35.0472C67.6412 34.0922 68.1797 33.1473 68.1797 32.2939C68.4438 32.2939 68.3016 32.2939 68.4642 32.365C68.8807 32.6901 68.261 33.2692 67.9054 34.5088C67.7834 34.9253 67.9054 34.9456 67.5599 35.0472ZM69.2465 32.6495C69.2465 32.3752 69.409 32.3447 69.6021 32.2939C69.6021 32.6596 69.9475 33.3099 70.0999 34.0211C70.293 34.6815 70.3956 35.3651 70.4047 36.0531C70.0186 35.7686 70.232 35.6263 70.3133 35.2504C70.1101 35.1793 70.171 35.4231 69.9983 34.6815C69.7545 33.6655 69.2465 33.1168 69.2465 32.6495ZM26.1784 33.3607L26.341 33.1676V33.3607C26.4731 33.442 26.4629 33.3607 26.341 33.4521L26.2191 33.6045L26.148 33.4521C26.0565 33.3708 26.0667 33.4521 26.148 33.3607H26.1784ZM18.02 33.4521C18.02 33.4521 18.3045 33.2388 18.1318 33.4521C18.1318 33.4521 17.9286 33.7061 18.02 33.4521ZM64.3189 33.32C64.4815 33.4928 64.4611 33.32 64.3189 33.5639C64.295 33.5466 64.276 33.5236 64.2635 33.4969C64.2511 33.4702 64.2457 33.4408 64.2478 33.4115C64.2478 33.4115 64.2478 33.3505 64.2478 33.32H64.3189ZM22.592 34.4275C22.5452 34.2568 22.5346 34.0783 22.5609 33.9034C22.5871 33.7284 22.6496 33.5609 22.7444 33.4115C22.814 33.3295 22.9007 33.2636 22.9984 33.2184C22.9984 33.8179 22.9984 34.2344 22.7342 34.3767L22.592 34.4275ZM61.4233 34.0312C61.4944 33.7366 61.5859 33.6858 61.6875 33.6756C61.7564 33.7808 61.7886 33.9059 61.7789 34.0312C61.6164 33.9703 61.657 33.95 61.4233 34.0312ZM12.9299 36.3375C12.6657 36.2461 12.7063 36.0023 12.8384 35.5349C12.3812 35.352 12.8384 34.0414 13.1026 33.8484C13.2956 34.2649 12.9908 34.6815 12.9807 34.9863L12.9299 36.3375ZM27.1538 33.7061C27.418 33.95 27.4281 34.4072 27.4992 34.7221C27.5704 35.0371 27.4992 35.7381 27.4992 36.0429H27.3164C27.3432 35.8644 27.3432 35.6829 27.3164 35.5044L27.2452 34.9456C27.1227 34.5377 27.0813 34.1097 27.1233 33.6858L27.1538 33.7061ZM40.8291 33.9093V34.1836C40.5853 34.1125 40.7478 34.1836 40.5548 34.0922C40.697 33.889 40.5548 33.9906 40.8291 33.9093ZM58.9748 33.7366C59.2303 34.353 59.3214 35.0252 59.2389 35.6873C59.1475 35.6162 58.4261 33.8788 58.9748 33.7366ZM76.2467 33.828C76.3552 33.888 76.4785 33.9161 76.6023 33.9093C76.6023 35.2809 77.0798 35.9413 76.5108 36.1343C76.5108 35.8702 76.4194 35.9616 76.3381 35.6873C76.3381 35.098 76.3381 34.3767 76.2467 33.828ZM34.4283 33.4623C34.5152 33.9471 34.6339 34.4257 34.7839 34.8948C34.515 34.6919 34.2756 34.4526 34.0727 34.1836C34.2251 33.8585 34.1642 33.6655 34.4283 33.4623ZM38.2383 35.4435C38.0502 35.3045 37.8972 35.1236 37.7913 34.9151C37.964 34.5799 38.1265 34.0516 38.411 33.8992C38.411 34.4072 38.2383 34.9151 38.2383 35.4943V35.4435ZM48.2052 33.8992C48.6421 34.1836 48.4694 34.651 48.4694 35.8499H48.2865C48.2865 34.8339 48.2052 34.9355 48.2052 33.8992ZM52.9702 34.0312C52.9702 33.8687 52.9702 34.0312 53.0515 33.8585C53.3157 34.0414 53.1531 33.8585 53.275 34.1735C53.275 34.3055 53.3766 34.6002 53.3868 34.6713C53.4586 35.0053 53.496 35.3457 53.4986 35.6873L53.0922 34.4173C53.1003 34.3668 53.1003 34.3154 53.0922 34.2649C53.0007 33.9601 53.0109 34.397 53.0109 34.0008L52.9702 34.0312ZM75.7895 33.828C75.9773 34.4608 76.0664 35.1188 76.0536 35.7787H75.8301C75.8661 35.3126 75.7858 34.8448 75.5964 34.4173C75.4542 34.0109 75.3424 33.9296 75.7488 33.828H75.7895ZM81.347 33.7366H81.5299C81.6213 34.8847 81.8855 34.204 81.8855 36.1343C81.5299 35.8803 81.7331 35.3114 81.4994 34.4884C81.3874 34.2542 81.335 33.9959 81.347 33.7366ZM26.5442 33.828C26.5442 34.1328 26.8998 35.0167 26.8998 35.3317C26.8998 35.6467 26.8998 35.7584 26.8998 35.9616C26.5848 35.8295 26.7677 35.6975 26.7271 35.5654C26.6052 35.1488 26.2292 34.0516 26.5442 33.828ZM44.5984 35.6873C44.2632 35.5755 44.5984 35.6873 44.507 35.1691C44.507 34.8339 44.2428 34.1532 44.6899 33.828L44.5984 35.6873ZM53.7424 33.828C53.9862 34.0008 54.0167 34.204 54.0167 34.6205V35.6365L53.7424 33.828ZM17.9184 34.3056L18.1927 33.9296C18.2134 34.0096 18.2134 34.0935 18.1927 34.1735L17.9184 34.3056ZM39.5489 34.4681C39.5416 34.2577 39.5726 34.0477 39.6404 33.8484C39.7826 33.95 39.8639 33.8484 39.8233 34.1938C39.7826 34.5392 39.6709 34.3157 39.5489 34.4681ZM21.7385 33.9296L21.8401 35.8905C21.8401 36.0124 21.7182 36.0226 21.6471 36.0632C21.6471 35.6771 21.576 35.3927 21.5557 34.905C21.5353 34.4173 21.3931 34.1836 21.7385 33.889V33.9296ZM35.9625 33.8077C36.2571 34.0211 36.0539 33.7366 36.1657 34.1328C36.2427 34.6711 36.2632 35.2159 36.2266 35.7584H36.1352C36.1352 35.0675 35.9625 34.5595 35.9625 33.8077ZM61.6773 34.0719C61.759 34.6776 61.7349 35.293 61.6062 35.8905C61.3217 35.8092 61.3522 35.8905 61.3827 35.5959L61.4843 34.5799C61.4843 34.3157 61.4843 34.3157 61.6976 34.1532L61.6773 34.0719ZM64.3595 34.0312C64.4977 33.9314 64.6438 33.843 64.7964 33.7671L65.4263 34.8339C65.3435 35.0117 65.2449 35.1817 65.1317 35.3419C65.0257 35.5241 64.8841 35.6831 64.7151 35.8092C64.4964 35.2411 64.3761 34.6398 64.3595 34.0312ZM70.6587 33.8585C70.9534 34.0617 70.8213 33.9804 70.8924 34.4376C70.9186 34.7181 70.9186 35.0004 70.8924 35.2809H70.7502L70.6587 33.8585ZM58.3956 34.2954C58.4173 34.7996 58.4716 35.3019 58.5582 35.7991H58.2026C58.2026 34.8847 57.593 34.3563 58.3855 34.2852L58.3956 34.2954ZM59.625 33.8484C59.9298 34.0617 59.7368 33.7772 59.818 34.1938L59.9806 35.8905C59.6656 35.8092 59.7571 35.8905 59.7164 35.5349C59.7052 35.3556 59.7052 35.1757 59.7164 34.9964C59.7164 34.7831 59.7164 34.2954 59.7164 33.8484H59.625ZM67.0214 35.8803C66.9432 35.3422 66.9673 34.7941 67.0926 34.2649C67.1637 33.8077 66.9808 34.0516 67.2856 33.8382C67.2816 34.1783 67.2544 34.5178 67.2043 34.8542C67.1434 35.3622 67.3466 35.5857 67.0214 35.8702V35.8803ZM29.643 35.8702C29.0131 34.6713 28.7388 35.1691 29.4703 34.0008C29.7011 33.7386 29.8803 33.4353 29.9986 33.1067H30.1103C30.598 35.1996 30.6285 34.3665 30.0392 35.2606C29.9203 35.4896 29.7621 35.6959 29.5719 35.8702H29.643ZM56.2722 35.7787L55.7541 35.1387L55.5102 34.9151C55.6494 34.5945 55.8195 34.2883 56.0182 34.0008C56.2519 33.6756 56.3535 33.3404 56.6583 33.127C56.8736 33.6044 56.9977 34.1178 57.0241 34.6408C57.0241 34.8948 56.2824 35.7584 56.2214 35.7991L56.2722 35.7787ZM74.6821 34.6408C74.9361 34.4681 74.7938 34.4681 75.1189 34.3767C75.1337 34.5294 75.1678 34.6796 75.2205 34.8237C75.312 35.2199 75.3831 35.921 75.0377 36.1547C74.8649 35.7991 74.8446 35.0269 74.6821 34.6408ZM13.5496 36.2461C13.4651 35.6531 13.4962 35.0493 13.6411 34.4681H13.8544C13.8953 34.9177 13.8609 35.3709 13.7528 35.8092C13.7528 36.1851 13.8951 36.0226 13.5903 36.2461H13.5496ZM73.473 33.1981C73.8083 33.442 73.9201 34.3563 73.9201 34.8034C73.9201 34.9659 73.6457 35.2911 73.5645 35.4231C73.1784 36.0226 73.3816 35.8397 73.026 35.8702C72.9447 35.5044 72.9345 35.5959 72.7517 35.352L72.4875 35.0472C72.3351 34.844 72.4875 35.0472 72.3656 34.905C72.503 34.6089 72.6626 34.3236 72.8431 34.0516C73.0971 33.6756 73.0971 33.4318 73.4324 33.2083L73.473 33.1981ZM78.9492 35.8803C78.5428 35.8803 78.6648 35.8194 78.4514 35.4841C77.598 34.1532 79.3556 33.1168 79.3861 33.2184C79.5624 33.7004 79.6552 34.2089 79.6604 34.7221C79.6604 34.9761 79.0712 35.3723 78.9492 35.8803ZM80.5545 34.6307C80.5545 34.4275 80.5545 34.5291 80.6358 34.2751H80.9101C80.9248 34.5688 80.9622 34.8609 81.0219 35.1488C81.0726 35.485 81.093 35.825 81.0828 36.1648H80.8187C80.8187 35.5857 80.5545 34.905 80.5545 34.651V34.6307ZM14.8704 34.8237C14.926 34.2831 15.0176 33.7468 15.1447 33.2184C15.6135 33.7044 15.9767 34.2821 16.2115 34.9151C16.2115 34.9151 15.9372 35.3114 15.8864 35.3927C15.8356 35.4739 15.7035 35.6771 15.5816 35.8905C15.2859 35.5969 15.045 35.2529 14.8704 34.8745V34.8237ZM41.4793 34.9659C41.4793 34.7323 41.5708 34.3157 41.6114 34.0312C41.652 33.7468 41.6114 33.4521 42.0076 33.3607C42.1194 33.8179 42.8103 34.5494 42.8103 34.8745C42.6953 35.2612 42.4817 35.6113 42.1905 35.8905C41.9243 35.6205 41.6861 35.3244 41.4793 35.0066V34.9659ZM49.9324 35.0066C50.0283 34.6822 50.1721 34.374 50.3591 34.0922C50.7046 33.5537 50.6639 33.4928 50.9992 33.4013C51.1313 34.9558 51.619 34.5596 50.9382 35.4333C50.8396 35.5972 50.7081 35.739 50.5522 35.8499C50.3017 35.5886 50.0927 35.2905 49.9324 34.9659V35.0066ZM52.2489 34.6916C52.2489 34.5291 52.381 34.5494 52.513 34.5189C52.513 34.9558 52.7366 35.5349 52.6045 35.8499C52.3302 35.6568 52.4724 35.7991 52.3708 35.3723C52.2951 35.1531 52.254 34.9235 52.2489 34.6916ZM25.9041 34.5189L26.0464 35.7076C26.0464 36.0531 26.0464 35.7076 25.9549 35.9819C25.6704 35.7686 25.833 36.0429 25.7619 35.6263V34.8745C25.7619 34.5088 25.7619 34.6002 25.9854 34.4681L25.9041 34.5189ZM40.4024 35.7991H40.2195C40.2092 35.3548 40.2262 34.9103 40.2703 34.4681C40.6869 34.5799 40.5954 34.8034 40.3617 35.7991H40.4024ZM43.5621 34.7831C43.9279 34.9761 43.7653 34.7831 43.8263 35.0472C43.8367 35.2266 43.8367 35.4064 43.8263 35.5857C43.4707 35.4536 43.6028 35.3419 43.5824 35.2403C43.5621 35.1387 43.4199 34.9863 43.5824 34.7831H43.5621ZM54.7584 35.3114V34.7831H54.9311C54.9921 35.0777 55.0429 35.1488 54.7584 35.3114ZM66.1375 35.1488C65.8632 34.9151 66.1375 34.8847 66.1375 34.8847V35.1488ZM71.7052 35.0472C71.7052 35.0472 71.7052 35.0472 71.7763 35.0472V35.2707L71.695 35.0472C71.695 35.0472 71.695 35.0472 71.695 34.9863L71.7052 35.0472ZM77.1611 35.5044C77.1566 35.2565 77.2161 35.0115 77.3338 34.7932C77.4022 34.8364 77.4553 34.8999 77.4857 34.9748C77.516 35.0498 77.5221 35.1323 77.503 35.2109C77.4839 35.2895 77.4407 35.3601 77.3793 35.4127C77.318 35.4654 77.2416 35.4975 77.1611 35.5044ZM83.257 35.1996C83.1961 35.1996 82.8811 35.3419 83.257 34.9151V35.1996ZM22.4904 34.8847C22.5717 34.9761 22.7139 34.8847 22.4904 35.1387C22.4904 35.1387 22.4904 35.1387 22.4396 34.9863V34.8847H22.4904ZM48.9774 35.413V34.7932C49.1806 34.7932 49.2517 34.7932 49.2517 35.0574C49.2517 35.3215 49.0891 35.3114 48.9774 35.413ZM36.7854 35.5959C36.8354 35.3617 36.866 35.1238 36.8769 34.8847H37.0597C37.0597 35.6975 36.8566 35.5857 36.7854 35.5959ZM34.3877 35.413C34.7128 35.5044 34.9871 35.7279 34.4791 35.86C34.4674 35.7078 34.4367 35.5576 34.3877 35.413ZM39.3661 35.7686H39.2543C39.267 35.6165 39.2977 35.4664 39.3457 35.3215C39.3457 35.3215 39.5997 35.4028 39.427 35.7686H39.3661ZM46.285 33.2794C46.6101 33.3708 46.6406 33.6147 46.8336 34.4173C47.2299 36.0327 46.9251 35.7686 46.0107 35.7686C45.6449 35.7686 45.7973 35.5451 45.8176 35.3215C46.0107 33.5944 46.1834 33.4521 46.285 33.2896V33.2794ZM49.0383 35.606C49.0383 35.606 49.1298 35.606 49.1399 35.606C49.1501 35.606 49.3127 35.413 49.1399 35.606C49.1399 35.606 48.9774 35.7686 48.9977 35.606H49.0383ZM54.606 35.7787C54.606 35.4638 54.606 35.5654 54.7482 35.606C54.8905 35.6467 54.6669 35.7787 54.606 35.7787ZM55.4086 35.7787C55.2359 35.7787 55.3375 35.8499 55.2257 35.7076C55.114 35.5654 55.2969 35.3825 55.4086 35.7787ZM37.4357 35.5146C37.71 35.7178 37.5779 35.4536 37.6084 35.8702C37.3239 35.7889 37.2528 35.7889 37.4357 35.5146ZM42.9525 35.5146H43.1252V35.7787H42.9525V35.5146ZM49.4447 35.4231C49.7597 35.4231 49.6175 35.4231 49.8207 35.5857L49.9832 35.8702C49.6175 35.8702 49.6886 35.8702 49.4447 35.7787V35.4231ZM51.4056 35.606V35.8702C51.4056 35.8702 51.3345 35.8702 51.1313 35.7787C51.1313 35.6365 51.2329 35.6162 51.4056 35.606ZM57.0545 35.7178C56.9936 35.8194 56.8615 35.86 56.9936 35.7178H57.0545ZM30.2526 35.9311C30.2526 35.6771 30.2018 35.7381 30.4558 35.6365C30.4558 35.9311 30.5371 35.8702 30.2526 35.9311ZM41.4285 35.606C41.4759 35.6873 41.507 35.777 41.52 35.8702H41.2863C41.3472 35.6263 41.2863 35.7279 41.4692 35.606H41.4285ZM65.4975 35.6975C65.4975 35.5552 65.4467 35.5857 65.5787 35.606H65.6702C65.6702 35.606 66.0359 35.8803 65.6702 35.86H65.5279C65.5279 35.86 65.2739 35.7889 65.5279 35.6975H65.4975ZM68.3727 35.3317C68.3863 34.5781 68.6002 33.8417 68.9925 33.1981C69.0357 33.3575 69.0901 33.5137 69.155 33.6655C69.4268 34.3073 69.5551 35.0008 69.531 35.6975C69.531 36.0734 69.4192 35.8803 68.3727 35.8803V35.3317ZM73.788 35.6975H73.9709C73.9758 35.7549 73.9758 35.8127 73.9709 35.8702C73.9709 36.0327 73.9708 35.9718 73.8896 36.0531L73.788 35.6975ZM20.3162 36.1343C19.4526 36.1343 19.1681 36.3071 19.1681 35.6873C19.2236 34.8365 19.4016 33.9981 19.6964 33.1981C20.1841 33.5537 20.4889 35.7483 20.3162 36.1343ZM28.688 35.5146C28.9013 35.6771 28.881 35.6365 28.9521 35.9616H28.5864C28.5864 35.6467 28.5864 35.7178 28.6778 35.5146H28.688ZM72.1827 35.5146C72.3859 35.6467 72.9345 36.175 72.01 35.9616C72.0409 35.8036 72.0993 35.6523 72.1827 35.5146ZM77.8824 35.5146C77.9918 35.5765 78.0826 35.6667 78.1451 35.7758C78.2077 35.8848 78.2398 36.0086 78.238 36.1343C77.7808 36.1343 77.6284 36.1953 77.6386 35.9007C77.6455 35.8215 77.6712 35.7452 77.7136 35.678C77.7561 35.6109 77.8139 35.5548 77.8824 35.5146ZM17.7355 34.1836H17.8168C17.8168 34.8643 17.9082 35.3622 17.9082 36.1343H17.7355V34.1836ZM79.7112 35.606V36.1343C79.4369 36.1343 79.254 36.2969 79.2947 36.0023C79.3353 35.7076 79.4979 35.6568 79.7112 35.606ZM14.7485 35.8702C14.9822 36.0226 14.9415 35.8702 15.0228 36.2258H14.7485V35.8702ZM16.5366 35.606C16.5813 35.8099 16.6085 36.0173 16.6179 36.2258H16.0896C16.0896 35.8295 16.2014 35.6975 16.5366 35.606ZM44.2022 8.63135C44.4492 8.66128 44.6877 8.74076 44.9032 8.86503L45.5331 9.16983C47.3823 10.0233 47.0063 9.54575 47.4026 9.54575C48.1343 9.52866 48.8642 9.62461 49.5667 9.83023C49.7854 9.95813 50.0346 10.0248 50.288 10.0233C50.5826 10.0233 50.603 9.86071 50.6944 9.67783H51.7104C51.9918 9.69696 52.2744 9.68674 52.5537 9.64735C52.7292 9.5595 52.918 9.50114 53.1125 9.47463C53.2852 9.47463 53.3563 9.70831 53.6103 9.47463C53.8643 9.24095 53.6103 9.47463 54.3317 9.25111C54.5755 9.16983 55.4594 8.71263 55.2664 9.04791C55.2317 9.08767 55.1944 9.12501 55.1546 9.15967C55.0663 9.23269 54.9668 9.29101 54.86 9.33239L54.0675 9.64735L53.9049 9.69815C53.5914 9.88099 53.2471 10.0049 52.889 10.0639C52.7061 10.0639 52.889 9.98263 52.4826 9.98263C52.0762 9.98263 52.0965 10.0334 52.0152 10.2773C51.9339 10.5211 51.9644 10.4398 51.4564 10.4703L50.4404 10.5516L48.1443 10.4398C48.1443 10.3077 48.1443 10.2976 48.1443 10.1452L46.3256 9.96231C46.2037 9.96231 46.2342 9.90135 46.1427 9.83023C46.0699 9.78316 45.9914 9.7456 45.9091 9.71847C45.6012 9.58911 45.3054 9.43272 45.0252 9.25111L44.3343 8.84471C44.1412 8.69231 44.2225 8.75327 44.1819 8.65167L44.2022 8.63135ZM45.5535 12.1772C45.5528 12.3865 45.5801 12.5949 45.6347 12.7969C45.2588 12.99 45.4417 12.7969 45.1268 12.7969C44.9134 12.9392 45.0658 13.0611 44.9642 13.6605C44.9083 13.973 44.9083 14.2929 44.9642 14.6054C44.9544 14.7712 44.9544 14.9374 44.9642 15.1032L45.0353 16.6171C45.0311 16.6949 45.0311 16.7729 45.0353 16.8508C45.0755 16.9032 45.1278 16.945 45.1877 16.9727C45.4159 16.9402 45.6405 16.8857 45.8583 16.8101C46.1123 16.6984 46.1224 16.5663 46.2951 16.3834C46.9759 15.6925 47.0673 16.0989 47.7785 14.4733C47.9207 14.1482 48.4186 12.9189 47.9512 12.6953C47.7887 12.6141 47.7379 12.8274 47.3619 12.8274C47.1486 12.8274 47.301 12.228 47.3619 12.1365C47.4229 12.0451 47.4331 11.9638 47.5956 11.9638H48.3983C48.6929 11.9638 48.8859 11.9638 49.1806 11.9638C49.4752 11.9638 49.8511 11.8825 49.8511 12.1569C49.8354 12.3836 49.7502 12.5999 49.6073 12.7766C49.2111 12.7766 49.0891 12.7766 49.0993 13.2033C49.0183 13.9511 48.7178 14.6581 48.2357 15.2353C47.9614 15.6011 47.6566 15.9364 47.3721 16.2513C47.0876 16.5663 46.4882 16.9219 46.4882 17.2673C46.4882 17.6127 46.8031 17.6737 47.1283 17.694C48.4186 17.7753 48.9875 18.5983 49.4346 19.726C49.9426 20.996 49.7597 21.6666 50.1458 22.2457C50.3896 22.1339 50.4607 22.2457 50.6639 22.3778C50.7276 22.3043 50.7635 22.2108 50.7655 22.1136C50.7614 22.0075 50.7261 21.905 50.6639 21.819C50.7645 21.3312 50.7885 20.8308 50.735 20.3356C50.735 20.234 50.735 20.0918 50.735 19.9699C50.6842 19.1036 50.6842 18.2351 50.735 17.3689C50.7001 17.1536 50.7001 16.934 50.735 16.7187C50.796 16.5358 51.2532 16.0888 50.735 16.0888H50.6334C50.6334 15.8144 50.5826 15.5808 50.5826 15.2861C50.6452 14.6056 50.5972 13.9193 50.4404 13.2541C50.4404 13.183 50.3083 12.9595 50.3083 12.9189C50.3083 12.8782 50.3896 12.9189 50.4201 12.736C50.4506 12.5531 50.1255 12.5328 50.1255 12.2991C50.1255 12.0654 50.5522 11.9638 50.7757 11.9029C51.1089 11.8168 51.4585 11.8168 51.7917 11.9029C52.0069 11.9389 52.224 11.9626 52.4419 11.974C52.8585 11.974 52.6756 12.0553 52.8991 12.2381C53.035 12.3501 53.1813 12.4488 53.336 12.5328C53.5392 12.4007 53.4884 12.228 54.037 12.5937C54.2881 12.7685 54.4965 12.9977 54.6466 13.2643C54.896 13.7233 55.0774 14.2161 55.1851 14.7273C55.2087 14.9784 55.1782 15.2316 55.0959 15.4699C55.0135 15.7082 54.8811 15.9261 54.7076 16.1091C54.5958 16.2513 54.0574 16.8609 54.0574 17.0133C54.0574 17.1657 54.2707 17.2165 54.4231 17.247C54.9616 17.3283 55.0632 17.1048 55.7541 17.6839C56.1605 18.009 56.7701 18.4154 56.7701 19.0148C56.7834 19.6466 56.6292 20.2705 56.323 20.8233C56.236 21.1055 56.0945 21.3678 55.9065 21.5954C55.665 21.7796 55.3934 21.9205 55.1038 22.012C55.1038 22.2355 55.4086 22.5098 54.4028 22.7029L53.8745 22.7638C53.2852 22.8248 52.635 22.7638 52.1473 22.8756C51.8132 22.9534 51.4735 23.0043 51.1313 23.028C50.9078 23.028 50.7757 22.9772 50.542 22.9772C50.3179 23.0278 50.0854 23.0278 49.8613 22.9772C49.6145 22.9569 49.3664 22.9569 49.1196 22.9772H48.3881H47.6363C47.6363 22.6724 47.8496 22.4895 47.9309 22.2152C48.0122 21.9409 47.9309 22.1441 48.0427 22.0628C48.3678 21.8088 48.2967 22.0628 48.6827 22.0628C48.825 22.0628 48.8859 21.8901 48.8859 21.7885C48.8859 21.3415 48.7437 20.8639 48.6624 20.4372C48.6222 20.1789 48.4839 19.946 48.2763 19.787C48.1443 19.6651 47.7683 19.4212 47.7683 19.2383C47.7578 19.1472 47.7578 19.0552 47.7683 18.964L47.5448 18.7913C47.2589 18.6547 46.9592 18.5491 46.6507 18.4763C46.4299 18.4172 46.2061 18.3697 45.9802 18.3341C45.7499 18.2737 45.5156 18.2296 45.2792 18.202C45.1864 18.3907 45.1247 18.5931 45.0963 18.8015C45.0164 19.1341 44.9789 19.4754 44.9845 19.8175C44.9845 20.0207 45.0556 20.0715 45.0658 20.2747C45.0506 20.4572 45.0506 20.6407 45.0658 20.8233C45.1268 21.1666 45.0844 21.5202 44.9439 21.8393C44.8423 21.8393 44.6594 21.7072 44.7204 21.8901C44.7385 21.944 44.7725 21.9912 44.8177 22.0256C44.863 22.06 44.9176 22.08 44.9744 22.0831C44.9744 22.2558 45.1674 22.2965 45.2588 22.4082C45.3503 22.52 45.2588 22.7029 45.2588 22.8858C44.3907 22.9489 43.5253 22.7316 42.79 22.266C42.5766 22.0526 42.5969 22.1238 42.5969 21.7885C42.5969 21.6564 42.6579 21.6462 42.729 21.5954C43.1557 21.6971 43.43 22.0425 43.5621 21.2907C43.5621 20.9757 43.6231 20.6303 43.6942 20.3255C43.799 19.7424 43.8298 19.1484 43.7856 18.5576C43.7856 18.3646 43.7856 18.3239 43.7856 18.202C43.86 18.1222 43.9002 18.0164 43.8974 17.9074C43.9178 17.6606 43.9178 17.4125 43.8974 17.1657C43.8287 16.8959 43.7845 16.6205 43.7653 16.3428C43.9482 16.3428 43.8872 16.3936 44.0092 16.424C44.0092 16.1091 43.7653 15.8449 43.7653 15.5706C43.7653 14.6765 44.0803 14.1888 43.6231 13.2033C43.5864 13.1003 43.5275 13.0066 43.4504 12.929C43.3792 12.929 43.4504 13.0408 43.237 13.0408H42.8509L42.7493 12.8477C42.7326 12.7605 42.7326 12.6708 42.7493 12.5836C43.4097 12.4312 43.5113 12.0654 44.7813 12.0756C45.0455 12.0756 45.3198 12.0146 45.5941 12.0146C45.5884 12.0788 45.5884 12.1434 45.5941 12.2077L45.5535 12.1772ZM51.7612 18.2325C51.8019 18.5019 51.8019 18.7759 51.7612 19.0453C51.6494 19.4212 51.7104 19.3399 51.8323 19.6447C51.8846 20.0427 51.8846 20.4457 51.8323 20.8436C51.8323 21.2602 51.8323 21.9815 52.4013 21.9815C53.1866 21.9371 53.9483 21.6961 54.6161 21.2805C54.8474 21.1455 55.0399 20.953 55.1749 20.7217C55.4213 20.4378 55.5763 20.0862 55.6198 19.7128C55.6633 19.3395 55.5933 18.9617 55.4188 18.6287C55.3513 18.5229 55.2692 18.4271 55.1749 18.3443C54.9921 18.202 55.2359 18.2223 54.9921 18.009C54.878 17.9247 54.7511 17.8595 54.6161 17.8159C54.4768 17.7553 54.3298 17.7143 54.1793 17.694V17.7753C53.6306 17.7753 53.9354 17.0133 52.6045 17.7753L51.7612 18.2325ZM51.6494 12.9087C51.6494 13.0611 51.751 12.9087 51.6494 13.2948C51.6577 13.6048 51.6882 13.9137 51.7409 14.2193C51.7409 14.8797 51.7409 15.469 51.7409 16.0278C51.7409 16.1599 51.7409 16.2412 51.7409 16.3326C51.7409 16.424 51.7409 17.2978 51.9136 17.2978C52.4287 17.2021 52.9152 16.9901 53.336 16.678C53.5467 16.5175 53.7209 16.314 53.847 16.081C53.9731 15.8481 54.0483 15.591 54.0675 15.3268V15.0321C54.0675 13.691 52.3708 11.8927 51.6901 12.9087H51.6494ZM83.5822 36.2766C83.5952 36.0574 83.6615 35.8447 83.7752 35.6568C83.9315 35.8469 84.052 36.0638 84.1308 36.2969L83.5822 36.2766Z" fill="#E7E7E7"/>
<path fill-rule="evenodd" clip-rule="evenodd" d="M12.2185 63.4926C12.4864 63.5116 12.7524 63.4361 12.9704 63.2793C13.0569 63.2042 13.1249 63.1101 13.169 63.0043C13.213 62.8985 13.232 62.784 13.2244 62.6697C13.232 62.5538 13.2131 62.4378 13.1691 62.3304C13.1251 62.223 13.0571 62.1271 12.9704 62.0499C12.7511 61.8967 12.4852 61.8248 12.2185 61.8467H11.3245V63.4926H12.2185ZM12.2795 60.9425C12.6563 60.9345 13.0304 61.0073 13.3768 61.1558C13.6662 61.2836 13.913 61.4916 14.088 61.7553C14.264 62.027 14.3527 62.3461 14.342 62.6697C14.3501 62.993 14.2617 63.3113 14.088 63.5841C13.9157 63.8501 13.6681 64.0588 13.3768 64.1835C13.0297 64.3286 12.6556 64.3979 12.2795 64.3867H11.3245V65.6973H10.217V60.9628L12.2795 60.9425ZM8.01232 65.6973V62.8526L6.60008 65.2198H6.1124L4.71033 62.9338V65.7177H3.69434V60.9628H4.59857L6.37656 63.9193L8.13423 60.9628H9.03847V65.7177L8.01232 65.6973Z" fill="#E7E7E7"/>
<path fill-rule="evenodd" clip-rule="evenodd" d="M34.5103 63.495C34.7781 63.5131 35.0438 63.4377 35.2621 63.2816C35.3487 63.2065 35.4167 63.1124 35.4607 63.0066C35.5048 62.9009 35.5238 62.7863 35.5161 62.672C35.5238 62.5562 35.5049 62.4401 35.4609 62.3327C35.4169 62.2253 35.3489 62.1294 35.2621 62.0523C35.0425 61.8998 34.7769 61.828 34.5103 61.8491H33.6061V63.495H34.5103ZM34.5713 60.9448C34.948 60.9369 35.3222 61.0096 35.6685 61.1582C35.9562 61.2888 36.2023 61.4962 36.3797 61.7576C36.5558 62.0293 36.6444 62.3484 36.6337 62.672C36.6419 62.9953 36.5535 63.3137 36.3797 63.5864C36.2074 63.8499 35.9595 64.0553 35.6685 64.1757C35.3237 64.3291 34.9485 64.402 34.5713 64.389H33.5553V65.6997H32.5088V60.9651L34.5713 60.9448ZM29.095 64.8666C29.3611 64.8664 29.623 64.8 29.857 64.6735C30.0807 64.5478 30.2639 64.3611 30.3854 64.135C30.5182 63.8924 30.5848 63.6191 30.5784 63.3426C30.5844 63.0693 30.5178 62.7993 30.3854 62.5603C30.2646 62.3312 30.0814 62.1409 29.857 62.0116C29.6222 61.8882 29.3603 61.8254 29.095 61.8287C28.8296 61.8241 28.5674 61.887 28.333 62.0116C28.1087 62.1409 27.9255 62.3312 27.8047 62.5603C27.6687 62.7984 27.5986 63.0684 27.6015 63.3426C27.5987 63.62 27.6688 63.8932 27.8047 64.135C27.9261 64.3611 28.1094 64.5478 28.333 64.6735C28.5666 64.8012 28.8288 64.8677 29.095 64.8666ZM29.095 65.8013C28.6252 65.8281 28.1564 65.7337 27.7336 65.527C27.3445 65.3269 27.0203 65.0204 26.7989 64.643C26.5787 64.2597 26.4629 63.8253 26.4629 63.3832C26.4629 62.9411 26.5787 62.5067 26.7989 62.1234C27.0209 61.7491 27.3452 61.446 27.7336 61.2496C28.1447 61.0359 28.6012 60.9243 29.0646 60.9243C29.5279 60.9243 29.9844 61.0359 30.3955 61.2496C30.777 61.4519 31.0966 61.7539 31.3201 62.1234C31.4905 62.4056 31.6019 62.7194 31.6475 63.0459C31.6932 63.3724 31.6722 63.7048 31.5858 64.0229C31.4994 64.3411 31.3493 64.6384 31.1447 64.8969C30.9402 65.1554 30.6853 65.3697 30.3955 65.527C29.9856 65.7426 29.5277 65.851 29.0646 65.8419L29.095 65.8013ZM24.584 65.7606V62.9158L23.1718 65.2222H22.6841L21.2922 62.9362V65.72H20.2762V60.9651H21.1906L22.9991 63.9217L24.7466 60.9651H25.661V65.72L24.584 65.7606ZM17.7057 63.9115L16.9539 62.0929L16.1919 63.9115H17.7057ZM18.0512 64.7446H15.8871L15.4604 65.7606H14.292L16.4154 61.0058H17.5025L19.626 65.7606H18.4677L18.0512 64.7446Z" fill="#E7E7E7"/>
<path fill-rule="evenodd" clip-rule="evenodd" d="M45.7771 63.8711L45.0253 62.0525L44.2734 63.8711H45.7771ZM46.1225 64.7042H43.9178L43.4911 65.7202H42.3735L44.4868 60.9653H45.5739L47.6973 65.7202H46.5391L46.1225 64.7042ZM41.7131 60.9653V65.7202H40.6158V63.7695H38.4619V65.7202H37.3545V60.9653H38.4619V62.8449H40.6158V60.9653H41.7131Z" fill="#E7E7E7"/>
<path fill-rule="evenodd" clip-rule="evenodd" d="M58.3341 61.8696H56.0786V65.7202H54.9915V60.9653H58.3443L58.3341 61.8696ZM49.8607 61.8696C49.6024 61.8517 49.3463 61.9274 49.1394 62.0829C49.054 62.165 48.9879 62.265 48.9457 62.3757C48.9036 62.4863 48.8864 62.6049 48.8955 62.723C48.8872 62.8401 48.9037 62.9577 48.9439 63.068C48.9842 63.1783 49.0473 63.2789 49.1292 63.3631C49.3267 63.5226 49.5768 63.6023 49.8302 63.5866H50.8462V61.8696H49.8607ZM51.8927 60.9653V65.7202H50.7954V64.5112H49.7794L48.9362 65.771H47.7881L48.8041 64.3384C48.5014 64.2238 48.2445 64.0133 48.0726 63.739C47.8917 63.4577 47.7996 63.1285 47.8084 62.7941C47.7976 62.4578 47.886 62.1257 48.0624 61.8391C48.2363 61.5721 48.4831 61.3605 48.7736 61.2295C49.1161 61.0799 49.4871 61.0071 49.8607 61.0161L51.8927 60.9653Z" fill="#E7E7E7"/>
<path fill-rule="evenodd" clip-rule="evenodd" d="M66.5544 64.9072C67.0725 64.9072 67.3265 64.704 67.3265 64.2976C67.3265 63.8912 67.0725 63.7083 66.5544 63.7083H65.3453V64.9072H66.5544ZM65.3453 62.9362H66.3613C66.5518 62.9519 66.7419 62.9017 66.8998 62.7939C66.9622 62.7404 67.0112 62.673 67.0429 62.5971C67.0747 62.5213 67.0883 62.4391 67.0827 62.3571C67.0867 62.2767 67.0723 62.1965 67.0406 62.1225C67.0089 62.0486 66.9608 61.9828 66.8998 61.9303C66.7419 61.8225 66.5518 61.7723 66.3613 61.7881H65.3453V62.9362ZM67.5399 63.241C67.8036 63.3071 68.0388 63.4568 68.2104 63.6677C68.3685 63.8743 68.451 64.1289 68.4441 64.389C68.4582 64.5851 68.4216 64.7815 68.338 64.9594C68.2544 65.1373 68.1265 65.2907 67.9666 65.405C67.5598 65.6685 67.0786 65.7933 66.595 65.7606H64.248V60.9651H66.4629C66.916 60.9406 67.3659 61.054 67.7532 61.2903C67.9038 61.3866 68.0263 61.5209 68.1083 61.6796C68.1904 61.8384 68.2291 62.016 68.2206 62.1945C68.2287 62.4155 68.1645 62.6331 68.0377 62.8143C67.9168 63.0019 67.7438 63.1501 67.5399 63.241ZM60.8038 64.8666C61.0699 64.8664 61.3317 64.8 61.5658 64.6735C61.7895 64.5478 61.9727 64.3611 62.0941 64.135C62.2206 63.8918 62.2866 63.6218 62.2866 63.3476C62.2866 63.0735 62.2206 62.8035 62.0941 62.5603C61.9734 62.3312 61.7902 62.1409 61.5658 62.0116C61.331 61.8882 61.0691 61.8254 60.8038 61.8287C60.5384 61.8241 60.2762 61.887 60.0418 62.0116C59.8198 62.1439 59.6373 62.3333 59.5135 62.5603C59.3801 62.8012 59.3101 63.0722 59.3101 63.3476C59.3101 63.6231 59.3801 63.8941 59.5135 64.135C59.6375 64.3591 59.8202 64.5453 60.0418 64.6735C60.2754 64.8012 60.5376 64.8677 60.8038 64.8666ZM60.8038 65.8013C60.3442 65.8229 59.8865 65.7286 59.4729 65.527C59.0838 65.3269 58.7596 65.0204 58.5382 64.643C58.318 64.2597 58.2021 63.8253 58.2021 63.3832C58.2021 62.9411 58.318 62.5067 58.5382 62.1234C58.7602 61.7491 59.0845 61.446 59.4729 61.2496C59.884 61.0359 60.3405 60.9243 60.8038 60.9243C61.2672 60.9243 61.7237 61.0359 62.1348 61.2496C62.5182 61.4493 62.8383 61.7519 63.0593 62.1234C63.2856 62.5047 63.405 62.9398 63.405 63.3832C63.405 63.8266 63.2856 64.2617 63.0593 64.643C62.8389 65.0176 62.5189 65.3236 62.1348 65.527C61.7248 65.7426 61.267 65.851 60.8038 65.8419" fill="#E7E7E7"/>
<path fill-rule="evenodd" clip-rule="evenodd" d="M71.0144 61.8697C70.7588 61.8486 70.5047 61.9248 70.3031 62.0831C70.2147 62.1634 70.1458 62.2628 70.1018 62.3737C70.0578 62.4847 70.0397 62.6043 70.049 62.7233C70.0407 62.8404 70.0572 62.958 70.0974 63.0684C70.1377 63.1787 70.2009 63.2793 70.2827 63.3635C70.4803 63.523 70.7304 63.6027 70.9839 63.587H72V61.8697H71.0144ZM73.0467 60.9653V65.721H71.9492V64.5117H70.9331L70.0897 65.7718H68.9414L69.9576 64.339C69.6503 64.2276 69.3891 64.0165 69.2158 63.7394C69.0349 63.4581 68.9428 63.1288 68.9516 62.7944C68.9408 62.458 69.0292 62.1258 69.2056 61.8392C69.3795 61.5722 69.6264 61.3606 69.9169 61.2295C70.2594 61.0799 70.6305 61.0071 71.0042 61.0161L73.0467 60.9653Z" fill="#E7E7E7"/>
<path fill-rule="evenodd" clip-rule="evenodd" d="M93.8237 63.8711L93.1024 62.0525L92.3505 63.8711H93.8237ZM94.1692 64.7042H91.9645L91.5479 65.7202H90.4201L92.5334 60.9653H93.6205L95.744 65.7202H94.5959L94.1692 64.7042ZM89.7699 60.9653V65.7202H88.6625V63.7695H86.5086V65.7202H85.4113V60.9653H86.5086V62.8449H88.6625V60.9653H89.7699ZM79.8335 60.9653H80.9104V64.0641L83.1863 60.9653H84.2023V65.7202H83.1355V62.6722L80.8698 65.7202H79.8538L79.8335 60.9653ZM75.6882 62.5604C75.6805 63.0344 75.6329 63.5068 75.546 63.9727C75.5089 64.2811 75.3935 64.5749 75.2107 64.8261H77.3443V61.8696H75.7085L75.6882 62.5604ZM79.0918 64.8261V66.7057H78.0758V65.6897H74.723V66.7057H73.707V64.8261H73.9001C74.1845 64.8261 74.3877 64.6128 74.4995 64.1962C74.6403 63.6345 74.7154 63.0582 74.723 62.4792V60.9857H78.3806V64.8464L79.0918 64.8261Z" fill="#E7E7E7"/>
</svg>
