<svg width="175" height="36" viewBox="0 0 175 36" fill="none" xmlns="http://www.w3.org/2000/svg">
<path fill-rule="evenodd" clip-rule="evenodd" d="M18.2214 0.63914H17.5813C17.3036 0.776514 16.6051 0.662522 15.4359 1.73229C15.3336 1.82582 15.2606 1.89012 15.167 1.99242C15.1203 2.04503 15.0911 2.0801 15.0414 2.13272C14.9741 2.19994 14.9537 2.23794 14.8865 2.27594C14.5971 1.84043 14.071 1.3757 13.4338 1.13895C12.1244 0.653754 10.5577 1.33478 9.84454 2.42208C9.46457 3.0008 9.28043 3.58829 9.25412 4.433C8.48833 4.91235 7.93299 5.19002 7.44488 6.03764C6.98307 6.83558 6.88369 7.91704 7.20813 8.87865C7.50918 9.77012 8.0996 10.4307 8.66078 10.8662C9.1752 11.2637 10.1953 11.822 11.0487 11.9155C12.4605 12.0733 13.5419 11.4537 14.4743 10.6616L15.1583 10.0449C15.8978 9.34923 16.5466 8.56006 17.3036 7.88196C17.6076 7.61014 17.8824 7.33247 18.2127 7.0811C18.5605 6.8122 18.8235 6.62221 19.2473 6.38254C20.6708 5.58168 23.05 5.0731 24.8797 5.59629C26.1131 5.94996 27.2033 6.74205 27.6301 7.99303C28.0977 9.358 27.4898 10.8983 26.686 11.898C25.6162 13.2308 24.032 13.9819 22.3076 14.3999C21.9481 14.4876 21.1852 14.587 20.9134 14.7156C20.586 14.8734 20.0014 15.3177 20.5276 15.6684C20.9134 15.9256 21.4541 15.9169 21.9685 15.9315C24.1548 15.9929 26.8877 16.4693 28.1883 18.3078C29.8281 20.6227 28.4426 24.0921 27.2443 26.1498C26.5808 27.2897 25.9056 28.1899 25.0287 29.0843C24.1694 29.9612 23.2078 30.7211 22.1351 31.3407C21.0449 31.9692 19.7881 32.5011 18.5488 32.9045C18.2068 33.0155 17.5316 33.2377 17.178 33.2728C14.3048 33.5533 10.7272 33.4832 8.29835 32.1124C7.89499 31.8844 7.61148 31.6886 7.27535 31.4284C7.1029 31.294 6.96845 31.1654 6.81647 31.0222C6.16759 30.4025 5.43104 29.324 5.20598 28.3098C7.12629 28.2075 9.16352 26.3865 10.3853 25.1998C10.6162 24.9748 10.8208 24.7234 11.0663 24.51C11.2183 24.3785 12.253 23.2269 12.3874 23.0662L12.7119 22.692C13.2847 22.1075 13.805 21.4791 14.3983 20.912C15.2606 20.0849 16.2485 19.1992 17.5521 18.5328C18.8878 17.8489 20.5071 17.5507 22.1614 17.9833C23.5965 18.3575 24.64 19.2694 25.0024 20.6782C25.5578 22.8469 24.1957 25.08 22.4011 26.1498C21.8194 26.4976 21.1589 26.7519 20.396 26.9214C20.6445 27.0442 21.4979 27.0295 21.8136 27.0003C22.6262 26.9214 23.3949 26.6467 24.0642 26.2258C24.3126 26.0709 24.5085 25.9101 24.7277 25.7347C24.7978 25.6792 24.8621 25.609 24.9264 25.5506C25.4584 25.0742 25.8676 24.4545 26.1862 23.7764C26.534 23.0369 26.7152 22.1425 26.6275 21.2189C26.3148 17.9336 22.5706 16.3085 18.9317 17.0539C18.3734 17.1679 17.1458 17.5449 16.722 17.8752C16.4356 18.0973 16.1696 18.3253 15.8773 18.5474C15.5762 18.7754 15.2957 18.9917 15.0092 19.2197C14.3077 19.775 13.5887 20.3391 12.9544 20.9676C12.82 21.102 12.706 21.2218 12.5745 21.3592L9.16643 24.8082C9.03491 24.9456 8.90338 25.0274 8.76601 25.1765C8.7017 25.2437 8.64617 25.2817 8.5731 25.346C8.49418 25.4191 8.45326 25.4629 8.37142 25.5301L7.9593 25.8896C7.25197 26.5064 6.03314 27.4884 4.99845 27.5235C4.74709 25.571 5.3375 24.323 5.32289 23.8056L4.96045 24.624C4.84646 24.9163 4.74416 25.2203 4.66525 25.5301C4.58049 25.8604 4.51034 26.1878 4.4665 26.5385C4.42265 26.8776 4.42265 27.4855 4.3905 27.6697C3.98715 27.7953 3.01676 27.6697 2.63387 27.5527C2.09899 27.3832 1.68979 27.1231 1.39458 26.8191C0.640484 26.0329 0.441729 24.8579 0.640483 23.7501C0.999994 21.7246 2.80339 20.7717 4.6594 20.8565C4.95753 20.8711 5.29951 20.9617 5.53918 20.9676C5.27905 20.9383 4.79678 20.5759 3.60133 20.687C2.07853 20.8302 0.941538 21.7918 0.321894 23.1129C-0.271445 24.3756 -0.0609982 26.5473 1.0906 27.4621C2.1516 28.3068 3.2389 28.4793 4.63894 28.5085C4.91077 30.5311 6.46572 32.1095 7.64071 32.8928C11.0137 35.1434 15.7545 35.5117 19.7033 34.4594C21.6558 33.9392 23.3306 33.0418 24.7452 32.089C24.9352 31.9604 25.093 31.8376 25.2684 31.6973C25.6104 31.4284 25.9319 31.1449 26.2388 30.838C26.4697 30.6071 26.7182 30.3821 26.9198 30.1248L27.5453 29.3532C28.352 28.2805 29.0184 27.0705 29.5328 25.7815C29.8777 24.9105 30.1174 23.753 30.1876 22.73C30.3513 20.3011 29.5182 18.451 28.3286 17.2555C26.9549 15.876 25.0638 15.2037 23.0763 15.0926C23.5001 14.9085 23.9736 14.7887 24.4354 14.5694C25.0989 14.2538 25.663 13.9352 26.2242 13.4938C27.5921 12.4124 28.4046 11.0065 28.6151 9.16509C28.6969 8.44607 28.7466 8.37592 29.1909 7.84396C29.3838 7.61306 30.0268 7.07818 30.0999 6.82389C29.679 6.49653 28.2117 6.60175 28.013 6.40592C27.9341 6.32993 27.6447 5.93827 27.4342 5.73367C25.058 3.42462 21.6032 3.9858 18.8469 5.41215C18.2916 5.69859 17.7333 6.00549 17.2393 6.33285C16.8477 6.59298 16.5262 6.87065 16.1696 7.13956C15.8101 7.41138 15.5032 7.74166 15.17 8.04272L14.8543 8.35254C14.5796 8.60683 14.3048 8.88742 14.0271 9.11248C13.9628 9.16217 13.9278 9.20893 13.8605 9.25862C13.6267 9.43984 13.3958 9.64152 13.1386 9.81104C12.6154 10.1589 12.0484 10.4511 11.2329 10.4424C10.4671 10.4336 9.80946 10.1121 9.38273 9.75551C9.04075 9.46907 8.47664 8.87573 8.29835 8.31162C8.07621 7.60721 8.02945 6.83266 8.31881 6.14287C8.7017 5.22509 9.47626 4.73697 10.3356 4.38039C10.6045 4.26932 11.1072 4.14364 11.2913 4.05595L9.78608 4.2284C9.93807 3.13233 10.6279 2.00703 11.7444 1.70013C12.3348 1.53645 13.1386 1.56568 13.6705 1.8112C14.2084 2.05964 14.5825 2.43377 14.8748 2.84297C14.9654 2.79328 15.1261 2.64421 15.2197 2.57114C15.3453 2.47469 15.4535 2.39285 15.5938 2.2964C15.8481 2.12395 16.1199 1.97488 16.4297 1.83166C17.6076 1.29386 18.8761 1.34939 19.9371 2.11226C20.4457 2.47761 20.8345 2.93065 21.1852 3.43923C21.2378 3.51522 21.3986 3.74028 21.4278 3.8192C21.419 3.41877 20.9368 2.54776 20.6912 2.19994C20.5685 2.02457 20.4574 1.89889 20.3288 1.74398C19.9956 1.34939 19.4256 0.954807 18.8878 0.776514C18.7095 0.718057 18.3354 0.674214 18.2243 0.630371" fill="#3353A0"/>
<path fill-rule="evenodd" clip-rule="evenodd" d="M171.639 21.1886L174.854 22.1766C174.36 23.9858 173.539 25.3303 172.39 26.2101C171.241 27.0869 169.789 27.5254 168.023 27.5254C165.837 27.5254 164.042 26.78 162.634 25.2865C161.231 23.7929 160.526 21.7557 160.526 19.1631C160.526 16.4273 161.234 14.2995 162.645 12.7825C164.057 11.2656 165.916 10.5085 168.222 10.5085C170.236 10.5085 171.87 11.1048 173.124 12.2944C173.875 12.9988 174.433 14.0101 174.807 15.3283L171.525 16.1087C171.329 15.2582 170.923 14.5859 170.309 14.092C169.689 13.598 168.938 13.3525 168.058 13.3525C166.837 13.3525 165.846 13.788 165.089 14.6648C164.329 15.5358 163.949 16.9534 163.949 18.9117C163.949 20.987 164.323 22.4659 165.071 23.3486C165.822 24.2313 166.793 24.6727 167.991 24.6727C168.874 24.6727 169.637 24.3921 170.271 23.8309C170.905 23.2697 171.364 22.387 171.642 21.1828M159.328 10.8096L155.794 17.8829H158.775V20.3644H154.552V27.2535H151.407V20.3644H147.227V17.8829H150.171L146.678 10.8096H150.133L152.383 15.5709C152.673 16.1818 152.877 16.7079 152.988 17.1463C153.137 16.6173 153.339 16.0941 153.593 15.5709L155.879 10.8096H159.331H159.328ZM146.438 30.8311H143.682V27.2506H142.58L140.601 22.995C140.569 22.9336 140.505 22.8196 140.411 22.6471C140.359 22.5565 140.221 22.2993 139.999 21.8697C139.628 21.1653 139.344 20.7181 139.149 20.5222C138.824 20.2095 138.345 20.0487 137.713 20.04V27.2506H134.384V10.8096H137.713V17.7894C138.541 17.7104 139.151 17.3685 139.546 16.7722C139.645 16.6085 139.932 15.9071 140.411 14.6678C141.028 13.0485 141.656 11.9963 142.282 11.5111C142.983 10.9762 144.158 10.7073 145.818 10.7073C145.892 10.7073 146.052 10.7044 146.301 10.6956V13.142L145.83 13.1303C144.725 13.1011 143.974 13.4402 143.58 14.1533C143.384 14.4982 143.097 15.2026 142.717 16.2724C142.475 16.9476 142.25 17.4328 142.033 17.7309C141.764 18.1167 141.358 18.4645 140.817 18.7714C141.563 18.979 142.177 19.4028 142.656 20.0341C143.191 20.7473 143.72 21.6417 144.231 22.7261L145.061 24.4739H146.438V30.834V30.8311ZM114.62 13.674V18.3505H116.426C117.73 18.3505 118.595 18.2629 119.036 18.0904C119.475 17.918 119.82 17.652 120.068 17.2808C120.317 16.9154 120.442 16.4916 120.442 16.0006C120.442 15.4014 120.267 14.9074 119.919 14.5187C119.568 14.13 119.13 13.8844 118.589 13.7851C118.195 13.712 117.405 13.674 116.213 13.674H114.62ZM111.297 27.3091V10.9002H116.61C118.624 10.9002 119.934 10.9791 120.545 11.1457C121.483 11.3942 122.272 11.9291 122.906 12.7533C123.54 13.5775 123.856 14.6444 123.856 15.9509C123.856 16.9593 123.672 17.804 123.31 18.4908C122.944 19.1777 122.479 19.7184 121.918 20.1101C121.357 20.4988 120.784 20.759 120.203 20.8847C119.411 21.0425 118.271 21.1214 116.771 21.1214H114.617V27.3091H111.294H111.297ZM96.0102 27.3091V10.9002H108.158V13.674H99.3335V17.3188H107.538V20.0926H99.3335V24.5382H108.479V27.312H96.0102V27.3091ZM83.1789 10.9002H94.2945V13.674H86.5021V27.312H83.1789V10.9031V10.9002ZM70.9964 15.3692L67.7638 14.6122C68.4594 11.9378 70.4352 10.6021 73.6884 10.6021C75.6145 10.6021 77.0701 11.0259 78.0522 11.8735C79.0343 12.7211 79.5224 13.7178 79.5224 14.8636C79.5224 15.6469 79.2973 16.3542 78.8501 16.9885C78.4029 17.6198 77.7307 18.1723 76.8363 18.6545C77.9207 19.0287 78.7391 19.5548 79.2798 20.2387C79.8234 20.9256 80.0923 21.7674 80.0923 22.7699C80.0923 24.2138 79.5662 25.38 78.5082 26.2685C77.453 27.16 75.8717 27.6043 73.7673 27.6043C72.0516 27.6043 70.6954 27.3179 69.7016 26.745C68.7078 26.1721 67.9625 25.0994 67.4627 23.524L70.4879 22.539C70.8006 23.5269 71.2215 24.1699 71.7418 24.4593C72.262 24.7545 72.9021 24.8977 73.6679 24.8977C74.7143 24.8977 75.4772 24.6727 75.9594 24.2167C76.4359 23.7637 76.6785 23.2434 76.6785 22.653C76.6785 21.9807 76.4066 21.4342 75.8659 21.022C75.3281 20.6099 74.5097 20.4024 73.4224 20.4024H72.6712V17.9267H73.0483C74.0596 17.9267 74.8371 17.6988 75.3719 17.2428C75.9097 16.7868 76.1786 16.1818 76.1786 15.4277C76.1786 14.8285 75.9594 14.3229 75.5239 13.9107C75.0884 13.5015 74.4659 13.2969 73.6562 13.2969C72.2708 13.2969 71.3822 13.9838 70.9964 15.3605V15.3692ZM60.8161 20.7999L58.5363 14.7262L56.3208 20.7999H60.8161ZM66.8898 27.3091H63.3093L61.8918 23.5737H55.3095L53.9445 27.3091H50.4313L56.8031 10.9002H60.3134L66.8869 27.3091H66.8898ZM38.1641 10.9002H41.4873V17.8917C42.2239 17.8157 42.7237 17.6286 42.9838 17.3188C43.244 17.0148 43.6473 16.1613 44.191 14.7642C44.8749 12.9871 45.5676 11.8794 46.2574 11.4497C46.9443 11.0171 48.0491 10.8008 49.5778 10.8008C49.6538 10.8008 49.8145 10.7979 50.0601 10.7891V13.2414L49.5895 13.2297C48.9085 13.2297 48.4116 13.3145 48.0988 13.4811C47.7861 13.6506 47.5347 13.9049 47.3389 14.2498C47.1431 14.5947 46.8566 15.2991 46.4796 16.3689C46.2779 16.9388 46.0587 17.4123 45.8219 17.7923C45.5881 18.1752 45.1731 18.5347 44.5768 18.8708C45.3134 19.0783 45.9213 19.5022 46.4036 20.1364C46.8858 20.7707 47.412 21.6651 47.9848 22.8225L50.2208 27.3149H46.3247L44.3576 23.0914C44.3284 23.03 44.2611 22.916 44.1676 22.7436C44.1296 22.6851 43.9922 22.4279 43.7555 21.972C43.3346 21.1623 42.9926 20.6567 42.7237 20.455C42.4519 20.2533 42.0427 20.151 41.4903 20.1423V27.3149H38.1641V10.9061V10.9002ZM126.3 22.8634V19.7184H132.499V22.8634H126.3Z" fill="#3353A0"/>
</svg>
